
<svg width="22" height="22" viewBox="0 0 22 22" xmlns="http://www.w3.org/2000/svg">
	<circle cx="11" cy="11" r="11" fill="currentColor" />
	<circle cx="11" cy="11" r="9" fill="white" />
	<path d="M6.49433 17.0742C6.74567 17.2733 7.04879 17.1997 7.42558 16.9278L10.6698 14.5533L13.9135 16.9282C14.2796 17.2006 14.5832 17.2733 14.8443 17.0747C15.0854 16.8863 15.1269 16.5832 14.9805 16.1541L13.7037 12.3349L16.9792 10.0015C17.3452 9.7403 17.5024 9.45772 17.3975 9.15414C17.293 8.87155 17.0211 8.72557 16.5604 8.72557L12.5533 8.75682L11.3292 4.91664C11.193 4.48763 10.9836 4.25727 10.6698 4.25727C10.3559 4.25727 10.1363 4.48763 10.0104 4.91664L8.78629 8.75638L4.76844 8.72513C4.31844 8.72513 4.02558 8.87155 3.93138 9.15414C3.8479 9.45772 3.98362 9.7403 4.3604 10.0015L7.62513 12.3349L6.34835 16.1541C6.20192 16.5827 6.24344 16.8858 6.49433 17.0742Z" fill="currentColor"/>
</svg>
