<svg width="233" height="185" viewBox="0 0 233 185" fill="none" xmlns="http://www.w3.org/2000/svg">
<rect width="233" height="185" rx="10" fill="#A9A9A9" fill-opacity="0.43"/>
<path d="M30.6667 18.3333H31.7083C31.9846 18.3333 32.2496 18.4431 32.4449 18.6384C32.6403 18.8338 32.75 19.0987 32.75 19.375V29.7917C32.75 30.0679 32.6403 30.3329 32.4449 30.5282C32.2496 30.7236 31.9846 30.8333 31.7083 30.8333H15.0417C14.7654 30.8333 14.5004 30.7236 14.3051 30.5282C14.1097 30.3329 14 30.0679 14 29.7917V19.375C14 19.0987 14.1097 18.8338 14.3051 18.6384C14.5004 18.4431 14.7654 18.3333 15.0417 18.3333H16.0833V17.2917C16.0833 15.3578 16.8516 13.5031 18.219 12.1357C19.5865 10.7682 21.4411 10 23.375 10C25.3089 10 27.1635 10.7682 28.531 12.1357C29.8984 13.5031 30.6667 15.3578 30.6667 17.2917V18.3333ZM28.5833 18.3333V17.2917C28.5833 15.9103 28.0346 14.5856 27.0578 13.6088C26.0811 12.6321 24.7563 12.0833 23.375 12.0833C21.9937 12.0833 20.6689 12.6321 19.6922 13.6088C18.7154 14.5856 18.1667 15.9103 18.1667 17.2917V18.3333H28.5833ZM22.3333 22.5V26.6667H24.4167V22.5H22.3333Z" fill="#1E1E1E"/>
</svg>
