<svg width="18" height="19" viewBox="0 0 18 19" fill="none" xmlns="http://www.w3.org/2000/svg">
<path d="M9 18.5C6.61305 18.5 4.32387 17.5518 2.63604 15.864C0.948212 14.1761 0 11.8869 0 9.5C0 7.11305 0.948212 4.82387 2.63604 3.13604C4.32387 1.44821 6.61305 0.5 9 0.5C11.3869 0.5 13.6761 1.44821 15.364 3.13604C17.0518 4.82387 18 7.11305 18 9.5C18 11.8869 17.0518 14.1761 15.364 15.864C13.6761 17.5518 11.3869 18.5 9 18.5ZM6.1875 5C5.73995 5 5.31072 5.17779 4.99426 5.49426C4.67779 5.81072 4.5 6.23995 4.5 6.6875V12.3125C4.5 13.244 5.0625 14 5.625 14V12.875C5.625 12.5766 5.74353 12.2905 5.9545 12.0795C6.16548 11.8685 6.45163 11.75 6.75 11.75H12.375V12.875H11.25V14H12.9375C13.0867 14 13.2298 13.9407 13.3352 13.8352C13.4407 13.7298 13.5 13.5867 13.5 13.4375V5.5625C13.5 5.41332 13.4407 5.27024 13.3352 5.16475C13.2298 5.05926 13.0867 5 12.9375 5H6.1875ZM6.75 13.1562V15.9845C6.7499 16.0401 6.76626 16.0944 6.79702 16.1407C6.82777 16.187 6.87155 16.2231 6.92282 16.2445C6.97409 16.2659 7.03055 16.2717 7.08509 16.2611C7.13962 16.2504 7.18979 16.2239 7.22925 16.1848L8.2395 15.1858C8.29217 15.1335 8.36333 15.1042 8.4375 15.1042C8.51167 15.1042 8.58283 15.1335 8.6355 15.1858L9.64575 16.1848C9.68521 16.2239 9.73538 16.2504 9.78991 16.2611C9.84445 16.2717 9.90091 16.2659 9.95218 16.2445C10.0035 16.2231 10.0472 16.187 10.078 16.1407C10.1087 16.0944 10.1251 16.0401 10.125 15.9845V12.875H7.03125C6.95666 12.875 6.88512 12.9046 6.83238 12.9574C6.77963 13.0101 6.75 13.0817 6.75 13.1562Z" fill="currentColor"/>
</svg>
