<svg width="28" height="31" viewBox="0 0 28 31" fill="none" xmlns="http://www.w3.org/2000/svg">
<mask id="mask0_59_800" style="mask-type:luminance" maskUnits="userSpaceOnUse" x="2" y="3" width="25" height="25">
<path d="M13.1055 16.7502L19.0305 7.37523C19.393 7.58773 19.743 7.81273 20.068 8.06273L23.218 6.80023C23.418 6.72523 23.7555 6.76273 23.8555 6.96273L26.443 11.4377C26.568 11.6502 26.518 12.0002 26.3555 12.1502L23.643 14.2502C23.7055 14.6627 23.7305 15.0752 23.7305 15.5002L13.1055 16.7502Z" fill="white"/>
<path d="M12.6479 15.0427L23.7294 15.4864C23.7266 15.9066 23.7068 16.3222 23.6528 16.7287L26.3211 18.8254C26.4861 18.9611 26.6223 19.2721 26.4991 19.4587L23.9174 23.9371C23.7959 24.1516 23.4678 24.2833 23.2566 24.2176L20.0817 22.9185C19.7557 23.1788 19.411 23.4067 19.043 23.6192L12.6479 15.0427Z" fill="white"/>
<path d="M13.8979 13.7927L19.0544 23.6114C18.6891 23.8191 18.3193 24.0097 17.9403 24.1662L17.4586 27.5254C17.4236 27.7361 17.2223 28.0096 16.9991 27.9962L11.8299 27.9996C11.5834 28.0016 11.3053 27.7833 11.2566 27.5675L10.7942 24.1684C10.4057 24.0163 10.036 23.8317 9.66795 23.6192L13.8979 13.7927Z" fill="white"/>
<path d="M15.6055 14.2503L9.68047 23.6253C9.31797 23.4128 8.96797 23.1878 8.64297 22.9378L5.49297 24.2003C5.29297 24.2753 4.95547 24.2378 4.85547 24.0378L2.26797 19.5628C2.14297 19.3503 2.19297 19.0003 2.35547 18.8503L5.06797 16.7503C5.00547 16.3378 4.98047 15.9253 4.98047 15.5003L15.6055 14.2503Z" fill="white"/>
<path d="M16.063 15.9578L4.98153 15.5141C4.98431 15.0939 5.00417 14.6783 5.05817 14.2718L2.38982 12.1751C2.22486 12.0394 2.08859 11.7283 2.2118 11.5417L4.79351 7.06341C4.91504 6.8489 5.24315 6.7172 5.4543 6.78293L8.62921 8.08203C8.95519 7.82165 9.29993 7.59375 9.66799 7.38125L16.063 15.9578Z" fill="white"/>
<path d="M14.813 17.2078L9.65653 7.38906C10.0218 7.18137 10.3917 6.99076 10.7707 6.83431L11.2523 3.47508C11.2874 3.26437 11.4886 2.99084 11.7118 3.00423L16.881 3.00089C17.1275 2.99889 17.4056 3.21719 17.4543 3.43292L17.9167 6.83201C18.3052 6.98414 18.6749 7.16874 19.043 7.38124L14.813 17.2078Z" fill="white"/>
<path d="M14.3555 19.8752C16.7717 19.8752 18.7305 17.9165 18.7305 15.5002C18.7305 13.084 16.7717 11.1252 14.3555 11.1252C11.9392 11.1252 9.98047 13.084 9.98047 15.5002C9.98047 17.9165 11.9392 19.8752 14.3555 19.8752Z" fill="black"/>
</mask>
<g mask="url(#mask0_59_800)">
<path d="M29.3555 0.500244H-0.644531V30.5002H29.3555V0.500244Z" fill="black"/>
</g>
</svg>
