<svg width="30" height="26" viewBox="0 0 30 26" fill="none" xmlns="http://www.w3.org/2000/svg">
<path d="M10.498 19.9838L26.7418 1.26821C27.1251 0.826547 27.5723 0.605713 28.0835 0.605713C28.5946 0.605713 29.0418 0.826547 29.4251 1.26821C29.8084 1.70988 30.0001 2.23473 30.0001 2.84275C30.0001 3.45078 29.8084 3.97489 29.4251 4.41509L11.8397 24.7318C11.4564 25.1734 11.0091 25.3943 10.498 25.3943C9.98692 25.3943 9.5397 25.1734 9.15637 24.7318L0.914701 15.2359C0.531368 14.7943 0.347368 14.2701 0.362701 13.6636C0.378034 13.057 0.578006 12.5322 0.962617 12.089C1.34723 11.6459 1.80276 11.4251 2.3292 11.4265C2.85565 11.428 3.31053 11.6489 3.69387 12.089L10.498 19.9838Z" fill="black"/>
</svg>
