<svg width="30" height="30" viewBox="0 0 30 30" fill="none" xmlns="http://www.w3.org/2000/svg">
<path d="M9.375 13.125H8.125C7.79348 13.125 7.47554 13.2567 7.24112 13.4911C7.0067 13.7255 6.875 14.0435 6.875 14.375C6.875 14.7065 7.0067 15.0245 7.24112 15.2589C7.47554 15.4933 7.79348 15.625 8.125 15.625H9.375C9.70652 15.625 10.0245 15.4933 10.2589 15.2589C10.4933 15.0245 10.625 14.7065 10.625 14.375C10.625 14.0435 10.4933 13.7255 10.2589 13.4911C10.0245 13.2567 9.70652 13.125 9.375 13.125ZM15.625 13.125H14.375C14.0435 13.125 13.7255 13.2567 13.4911 13.4911C13.2567 13.7255 13.125 14.0435 13.125 14.375C13.125 14.7065 13.2567 15.0245 13.4911 15.2589C13.7255 15.4933 14.0435 15.625 14.375 15.625H15.625C15.9565 15.625 16.2745 15.4933 16.5089 15.2589C16.7433 15.0245 16.875 14.7065 16.875 14.375C16.875 14.0435 16.7433 13.7255 16.5089 13.4911C16.2745 13.2567 15.9565 13.125 15.625 13.125ZM21.875 13.125H20.625C20.2935 13.125 19.9755 13.2567 19.7411 13.4911C19.5067 13.7255 19.375 14.0435 19.375 14.375C19.375 14.7065 19.5067 15.0245 19.7411 15.2589C19.9755 15.4933 20.2935 15.625 20.625 15.625H21.875C22.2065 15.625 22.5245 15.4933 22.7589 15.2589C22.9933 15.0245 23.125 14.7065 23.125 14.375C23.125 14.0435 22.9933 13.7255 22.7589 13.4911C22.5245 13.2567 22.2065 13.125 21.875 13.125ZM9.375 18.125H8.125C7.79348 18.125 7.47554 18.2567 7.24112 18.4911C7.0067 18.7255 6.875 19.0435 6.875 19.375C6.875 19.7065 7.0067 20.0245 7.24112 20.2589C7.47554 20.4933 7.79348 20.625 8.125 20.625H9.375C9.70652 20.625 10.0245 20.4933 10.2589 20.2589C10.4933 20.0245 10.625 19.7065 10.625 19.375C10.625 19.0435 10.4933 18.7255 10.2589 18.4911C10.0245 18.2567 9.70652 18.125 9.375 18.125ZM15.625 18.125H14.375C14.0435 18.125 13.7255 18.2567 13.4911 18.4911C13.2567 18.7255 13.125 19.0435 13.125 19.375C13.125 19.7065 13.2567 20.0245 13.4911 20.2589C13.7255 20.4933 14.0435 20.625 14.375 20.625H15.625C15.9565 20.625 16.2745 20.4933 16.5089 20.2589C16.7433 20.0245 16.875 19.7065 16.875 19.375C16.875 19.0435 16.7433 18.7255 16.5089 18.4911C16.2745 18.2567 15.9565 18.125 15.625 18.125ZM21.875 18.125H20.625C20.2935 18.125 19.9755 18.2567 19.7411 18.4911C19.5067 18.7255 19.375 19.0435 19.375 19.375C19.375 19.7065 19.5067 20.0245 19.7411 20.2589C19.9755 20.4933 20.2935 20.625 20.625 20.625H21.875C22.2065 20.625 22.5245 20.4933 22.7589 20.2589C22.9933 20.0245 23.125 19.7065 23.125 19.375C23.125 19.0435 22.9933 18.7255 22.7589 18.4911C22.5245 18.2567 22.2065 18.125 21.875 18.125ZM9.375 23.125H8.125C7.79348 23.125 7.47554 23.2567 7.24112 23.4911C7.0067 23.7255 6.875 24.0435 6.875 24.375C6.875 24.7065 7.0067 25.0245 7.24112 25.2589C7.47554 25.4933 7.79348 25.625 8.125 25.625H9.375C9.70652 25.625 10.0245 25.4933 10.2589 25.2589C10.4933 25.0245 10.625 24.7065 10.625 24.375C10.625 24.0435 10.4933 23.7255 10.2589 23.4911C10.0245 23.2567 9.70652 23.125 9.375 23.125ZM15.625 23.125H14.375C14.0435 23.125 13.7255 23.2567 13.4911 23.4911C13.2567 23.7255 13.125 24.0435 13.125 24.375C13.125 24.7065 13.2567 25.0245 13.4911 25.2589C13.7255 25.4933 14.0435 25.625 14.375 25.625H15.625C15.9565 25.625 16.2745 25.4933 16.5089 25.2589C16.7433 25.0245 16.875 24.7065 16.875 24.375C16.875 24.0435 16.7433 23.7255 16.5089 23.4911C16.2745 23.2567 15.9565 23.125 15.625 23.125ZM21.875 23.125H20.625C20.2935 23.125 19.9755 23.2567 19.7411 23.4911C19.5067 23.7255 19.375 24.0435 19.375 24.375C19.375 24.7065 19.5067 25.0245 19.7411 25.2589C19.9755 25.4933 20.2935 25.625 20.625 25.625H21.875C22.2065 25.625 22.5245 25.4933 22.7589 25.2589C22.9933 25.0245 23.125 24.7065 23.125 24.375C23.125 24.0435 22.9933 23.7255 22.7589 23.4911C22.5245 23.2567 22.2065 23.125 21.875 23.125Z" fill="#1E1E1E"/>
<path d="M26.875 3.75H23.4375C23.3546 3.75 23.2751 3.71708 23.2165 3.65847C23.1579 3.59987 23.125 3.52038 23.125 3.4375V1.25C23.125 0.918479 22.9933 0.600537 22.7589 0.366117C22.5245 0.131696 22.2065 0 21.875 0C21.5435 0 21.2255 0.131696 20.9911 0.366117C20.7567 0.600537 20.625 0.918479 20.625 1.25V7.1875C20.625 7.43614 20.5262 7.6746 20.3504 7.85041C20.1746 8.02623 19.9361 8.125 19.6875 8.125C19.4389 8.125 19.2004 8.02623 19.0246 7.85041C18.8488 7.6746 18.75 7.43614 18.75 7.1875V4.375C18.75 4.20924 18.6842 4.05027 18.5669 3.93306C18.4497 3.81585 18.2908 3.75 18.125 3.75H10.3125C10.2296 3.75 10.1501 3.71708 10.0915 3.65847C10.0329 3.59987 10 3.52038 10 3.4375V1.25C10 0.918479 9.8683 0.600537 9.63388 0.366117C9.39946 0.131696 9.08152 0 8.75 0C8.41848 0 8.10054 0.131696 7.86612 0.366117C7.6317 0.600537 7.5 0.918479 7.5 1.25V7.1875C7.5 7.43614 7.40123 7.6746 7.22541 7.85041C7.0496 8.02623 6.81114 8.125 6.5625 8.125C6.31386 8.125 6.0754 8.02623 5.89959 7.85041C5.72377 7.6746 5.625 7.43614 5.625 7.1875V4.375C5.625 4.20924 5.55915 4.05027 5.44194 3.93306C5.32473 3.81585 5.16576 3.75 5 3.75H3.125C2.46196 3.75 1.82607 4.01339 1.35723 4.48223C0.888392 4.95107 0.625 5.58696 0.625 6.25V27.5C0.625 28.163 0.888392 28.7989 1.35723 29.2678C1.82607 29.7366 2.46196 30 3.125 30H26.875C27.538 30 28.1739 29.7366 28.6428 29.2678C29.1116 28.7989 29.375 28.163 29.375 27.5V6.25C29.375 5.58696 29.1116 4.95107 28.6428 4.48223C28.1739 4.01339 27.538 3.75 26.875 3.75ZM26.875 26.875C26.875 27.0408 26.8092 27.1997 26.6919 27.3169C26.5747 27.4342 26.4158 27.5 26.25 27.5H3.75C3.58424 27.5 3.42527 27.4342 3.30806 27.3169C3.19085 27.1997 3.125 27.0408 3.125 26.875V11.875C3.125 11.7092 3.19085 11.5503 3.30806 11.4331C3.42527 11.3158 3.58424 11.25 3.75 11.25H26.25C26.4158 11.25 26.5747 11.3158 26.6919 11.4331C26.8092 11.5503 26.875 11.7092 26.875 11.875V26.875Z" fill="#1E1E1E"/>
</svg>
