<svg width="28" height="27" viewBox="0 0 28 27" fill="none" xmlns="http://www.w3.org/2000/svg">
<circle cx="14" cy="13.5" r="13.5" fill="white"/>
<mask id="mask0_594_3414" style="mask-type:luminance" maskUnits="userSpaceOnUse" x="2" y="2" width="24" height="23">
<path d="M13.9999 23.9166C15.3681 23.9183 16.7231 23.6496 17.9872 23.126C19.2512 22.6024 20.3993 21.8342 21.3655 20.8655C22.3342 19.8993 23.1024 18.7512 23.626 17.4872C24.1496 16.2231 24.4183 14.8681 24.4166 13.4999C24.4183 12.1317 24.1496 10.7767 23.626 9.51268C23.1024 8.24865 22.3342 7.10054 21.3655 6.1343C20.3993 5.16564 19.2512 4.39744 17.9872 3.87384C16.7231 3.35024 15.3681 3.08157 13.9999 3.08326C12.6317 3.08157 11.2767 3.35024 10.0127 3.87384C8.74865 4.39744 7.60054 5.16564 6.6343 6.1343C5.66564 7.10054 4.89744 8.24865 4.37384 9.51268C3.85024 10.7767 3.58157 12.1317 3.58326 13.4999C3.58157 14.8681 3.85024 16.2231 4.37384 17.4872C4.89744 18.7512 5.66564 19.8993 6.6343 20.8655C7.60054 21.8342 8.74865 22.6024 10.0127 23.126C11.2767 23.6496 12.6317 23.9183 13.9999 23.9166Z" fill="white" stroke="white" stroke-width="2.08333" stroke-linejoin="round"/>
<path d="M9.83325 13.5L12.9583 16.625L19.2083 10.375" stroke="black" stroke-width="2.08333" stroke-linecap="round" stroke-linejoin="round"/>
</mask>
<g mask="url(#mask0_594_3414)">
<path d="M1.5 1H26.5V26H1.5V1Z" fill="#FB8A1F"/>
</g>
</svg>
