<svg width="60" height="60" viewBox="0 0 60 60" fill="none" xmlns="http://www.w3.org/2000/svg">
<circle cx="30" cy="30" r="30" fill="#FEE102"/>
<mask id="mask0_2612_8519" style="mask-type:alpha" maskUnits="userSpaceOnUse" x="4" y="4" width="52" height="53">
<ellipse cx="29.7401" cy="30.4" rx="25.74" ry="26.4" fill="#D9D9D9"/>
</mask>
<g mask="url(#mask0_2612_8519)">
<rect x="6.68872" y="11.4263" width="44.3624" height="43.7955" rx="3.564" fill="#391C1A"/>
<path d="M51.0931 6H7.991C5.78587 6 4.00006 7.82952 4.00006 10.0837V54.1882C4.00006 56.4447 5.788 58.272 7.991 58.272H51.0931C53.2982 58.272 55.0841 56.4425 55.0841 54.1882V10.0837C55.0841 7.82734 53.2961 6 51.0931 6ZM29.5421 46.8375C28.282 46.8375 27.0531 46.7504 25.8555 46.5761C24.6593 47.4386 17.7395 52.411 17.0861 52.5047C17.0861 52.5047 16.82 52.6114 16.5923 52.4742C16.3645 52.3369 16.405 51.9754 16.405 51.9754C16.4731 51.4962 18.1993 45.4022 18.5164 44.2805C12.6737 41.3184 8.78919 36.0716 8.78919 30.0952C8.78919 20.8474 18.0801 13.3507 29.5421 13.3507C41.004 13.3507 50.2949 20.8474 50.2949 30.0952C50.2949 39.343 41.004 46.8375 29.5421 46.8375ZM21.1345 27.4903H19.2657V34.7692C19.2657 35.4139 18.7293 35.9388 18.0673 35.9388C17.4054 35.9388 16.8711 35.4161 16.8711 34.7692V27.4903H15.0023C14.7065 27.468 14.4298 27.3319 14.228 27.1095C14.0261 26.8872 13.9139 26.5949 13.9139 26.2913C13.9139 25.9878 14.0261 25.6955 14.228 25.4731C14.4298 25.2507 14.7065 25.1147 15.0023 25.0923H21.1324C21.4282 25.1147 21.7048 25.2507 21.9067 25.4731C22.1085 25.6955 22.2207 25.9878 22.2207 26.2913C22.2207 26.5949 22.1085 26.8872 21.9067 27.1095C21.7048 27.3319 21.4282 27.468 21.1324 27.4903M44.5182 33.9307C44.6136 34.0589 44.6832 34.2051 44.723 34.361C44.7628 34.5169 44.7721 34.6793 44.7502 34.8389C44.7282 34.998 44.6757 35.1511 44.5957 35.2894C44.5157 35.4277 44.4098 35.5485 44.2841 35.6448C44.0771 35.8056 43.8245 35.8927 43.5646 35.8931C43.3789 35.8937 43.1955 35.85 43.0292 35.7653C42.8629 35.6806 42.7183 35.5572 42.6068 35.4052L39.7993 31.6002L39.3842 32.0249V34.6973C39.3837 35.022 39.2575 35.3332 39.0334 35.563C38.8092 35.7928 38.5053 35.9224 38.188 35.9235C37.8702 35.9235 37.5654 35.7944 37.3407 35.5644C37.1159 35.3344 36.9897 35.0225 36.9897 34.6973V26.3164C37.0027 26.0004 37.1345 25.7018 37.3576 25.4829C37.5808 25.264 37.8779 25.1418 38.187 25.1418C38.496 25.1418 38.7932 25.264 39.0163 25.4829C39.2394 25.7018 39.3712 26.0004 39.3842 26.3164V28.9518L42.726 25.5323C42.9026 25.3549 43.1405 25.2563 43.388 25.2579C43.6859 25.2579 43.9882 25.3907 44.2138 25.6216C44.4184 25.8283 44.5432 26.1036 44.565 26.397C44.5758 26.5336 44.5578 26.6709 44.5123 26.7998C44.4667 26.9287 44.3947 27.0461 44.3011 27.144L41.5723 29.934L44.5182 33.9307ZM26.7452 26.3033C26.543 25.7153 25.93 25.1098 25.1488 25.0923C24.3698 25.1098 23.7568 25.7153 23.5546 26.3011L20.6918 34.0134C20.3278 35.1678 20.6449 35.599 20.9748 35.7558C21.2143 35.8643 21.4729 35.9214 21.7347 35.9235C22.2349 35.9235 22.6159 35.7166 22.7309 35.3834L23.3247 33.7935H26.9751L27.5689 35.3834C27.6839 35.7166 28.0649 35.9235 28.5651 35.9235C28.8271 35.9207 29.0857 35.8629 29.325 35.7537C29.6549 35.599 29.972 35.17 29.608 34.0113L26.7452 26.3033ZM23.9547 31.6242L25.151 28.1481L26.3451 31.6242H23.9547ZM36.5235 34.6363C36.5157 34.9406 36.3908 35.2294 36.1759 35.4399C35.9611 35.6503 35.6737 35.7655 35.3763 35.7602H31.5365C31.2387 35.766 30.9508 35.6512 30.7354 35.4406C30.5201 35.2301 30.3949 34.941 30.3871 34.6363V26.3164C30.3871 25.6412 30.9362 25.0923 31.611 25.0923C32.2857 25.0923 32.8327 25.6412 32.8327 26.3164V33.5147H35.3763C36.0084 33.5147 36.5257 34.0178 36.5257 34.6363" fill="#FEE102"/>
</g>
</svg>
