<svg width="21" height="21" viewBox="0 0 21 21" fill="none" xmlns="http://www.w3.org/2000/svg">
<path d="M10.4167 15.7085C10.7118 15.7085 10.9594 15.6085 11.1594 15.4085C11.3594 15.2085 11.459 14.9613 11.4583 14.6668C11.4576 14.3724 11.3576 14.1252 11.1583 13.9252C10.959 13.7252 10.7118 13.6252 10.4167 13.6252C10.1215 13.6252 9.87431 13.7252 9.675 13.9252C9.4757 14.1252 9.3757 14.3724 9.375 14.6668C9.37431 14.9613 9.47431 15.2088 9.675 15.4095C9.8757 15.6102 10.1229 15.7099 10.4167 15.7085ZM10.4167 11.5418C10.7118 11.5418 10.9594 11.4418 11.1594 11.2418C11.3594 11.0418 11.459 10.7946 11.4583 10.5002V6.3335C11.4583 6.03836 11.3583 5.79113 11.1583 5.59183C10.9583 5.39252 10.7111 5.29252 10.4167 5.29183C10.1222 5.29113 9.875 5.39113 9.675 5.59183C9.475 5.79252 9.375 6.03975 9.375 6.3335V10.5002C9.375 10.7953 9.475 11.0429 9.675 11.2429C9.875 11.4429 10.1222 11.5425 10.4167 11.5418ZM10.4167 20.9168C8.9757 20.9168 7.62153 20.6432 6.35417 20.096C5.08681 19.5488 3.98438 18.8068 3.04688 17.87C2.10938 16.9331 1.36736 15.8307 0.820835 14.5627C0.274307 13.2946 0.000695763 11.9404 1.31857e-06 10.5002C-0.000693126 9.05988 0.272918 7.70572 0.820835 6.43766C1.36875 5.16961 2.11077 4.06718 3.04688 3.13037C3.98299 2.19357 5.08542 1.45155 6.35417 0.904329C7.62292 0.357107 8.97709 0.0834961 10.4167 0.0834961C11.8563 0.0834961 13.2104 0.357107 14.4792 0.904329C15.7479 1.45155 16.8504 2.19357 17.7865 3.13037C18.7226 4.06718 19.4649 5.16961 20.0135 6.43766C20.5622 7.70572 20.8354 9.05988 20.8333 10.5002C20.8313 11.9404 20.5576 13.2946 20.0125 14.5627C19.4674 15.8307 18.7254 16.9331 17.7865 17.87C16.8476 18.8068 15.7451 19.5491 14.4792 20.097C13.2132 20.645 11.859 20.9182 10.4167 20.9168Z" fill="#FFAC33"/>
</svg>
