<svg width="60" height="60" viewBox="0 0 60 60" fill="none" xmlns="http://www.w3.org/2000/svg">
<circle cx="30" cy="30" r="30" fill="white"/>
<path d="M44.7083 27.0623H43.5V27H30V33H38.4773C37.2405 36.4928 33.9172 39 30 39C25.0297 39 21 34.9702 21 30C21 25.0297 25.0297 21 30 21C32.2943 21 34.3815 21.8655 35.9708 23.2792L40.2135 19.0365C37.5345 16.5397 33.951 15 30 15C21.7162 15 15 21.7162 15 30C15 38.2838 21.7162 45 30 45C38.2838 45 45 38.2838 45 30C45 28.9943 44.8965 28.0125 44.7083 27.0623Z" fill="#FFC107"/>
<path d="M16.7295 23.0182L21.6577 26.6325C22.9912 23.331 26.2207 21 30 21C32.2942 21 34.3815 21.8655 35.9707 23.2792L40.2135 19.0365C37.5345 16.5397 33.951 15 30 15C24.2385 15 19.242 18.2527 16.7295 23.0182Z" fill="#FF3D00"/>
<path d="M30 45C33.8745 45 37.395 43.5173 40.0567 41.106L35.4142 37.1775C33.8576 38.3613 31.9556 39.0016 30 39C26.0985 39 22.7857 36.5123 21.5377 33.0405L16.6462 36.8093C19.1287 41.667 24.1702 45 30 45Z" fill="#4CAF50"/>
<path d="M44.7083 27.0623H43.5V27H30V33H38.4773C37.8857 34.6623 36.82 36.1149 35.412 37.1782L35.4142 37.1768L40.0568 41.1052C39.7283 41.4037 45 37.5 45 30C45 28.9943 44.8965 28.0125 44.7083 27.0623Z" fill="#1976D2"/>
</svg>
