<svg width="21" height="19" viewBox="0 0 21 19" fill="none" xmlns="http://www.w3.org/2000/svg">
<path d="M18.5001 10.5721L11.0001 18.0001L3.50006 10.5721C3.00536 10.0907 2.6157 9.51207 2.3556 8.87269C2.09551 8.23331 1.97062 7.54701 1.98879 6.85699C2.00697 6.16697 2.16782 5.48819 2.46121 4.86339C2.75461 4.23859 3.17419 3.68131 3.69354 3.22663C4.21289 2.77196 4.82076 2.42974 5.47887 2.22154C6.13697 2.01333 6.83106 1.94364 7.51743 2.01686C8.20379 2.09007 8.86756 2.30461 9.46693 2.64696C10.0663 2.98931 10.5883 3.45205 11.0001 4.00605C11.4136 3.45608 11.9362 2.99738 12.5352 2.65866C13.1341 2.31994 13.7966 2.1085 14.481 2.03757C15.1654 1.96665 15.8571 2.03775 16.5128 2.24645C17.1685 2.45514 17.7741 2.79693 18.2916 3.25042C18.8091 3.70391 19.2275 4.25934 19.5205 4.88195C19.8135 5.50456 19.9748 6.18094 19.9944 6.86876C20.0139 7.55659 19.8913 8.24105 19.6342 8.8793C19.3771 9.51756 18.991 10.0959 18.5001 10.5781" stroke="black" stroke-width="2" stroke-linecap="round" stroke-linejoin="round"/>
</svg>
