<svg width="23" height="24" viewBox="0 0 23 24" fill="none" xmlns="http://www.w3.org/2000/svg">
<path d="M10.503 16.3822L6.08325 11.9614L7.55617 10.4885L10.503 13.4343L16.3947 7.54163L17.8687 9.01558L10.503 16.3822Z" fill="currentColor"/>
<path fill-rule="evenodd" clip-rule="evenodd" d="M0.083252 12C0.083252 5.67183 5.21346 0.541626 11.5416 0.541626C17.8697 0.541626 22.9999 5.67183 22.9999 12C22.9999 18.3281 17.8697 23.4583 11.5416 23.4583C5.21346 23.4583 0.083252 18.3281 0.083252 12ZM11.5416 21.375C10.3104 21.375 9.09136 21.1325 7.95393 20.6613C6.8165 20.1902 5.78301 19.4996 4.91246 18.6291C4.04191 17.7585 3.35135 16.725 2.88021 15.5876C2.40908 14.4502 2.16658 13.2311 2.16658 12C2.16658 10.7688 2.40908 9.54973 2.88021 8.4123C3.35135 7.27487 4.04191 6.24138 4.91246 5.37083C5.78301 4.50028 6.8165 3.80973 7.95393 3.33859C9.09136 2.86745 10.3104 2.62496 11.5416 2.62496C14.028 2.62496 16.4126 3.61268 18.1707 5.37083C19.9289 7.12899 20.9166 9.51355 20.9166 12C20.9166 14.4864 19.9289 16.8709 18.1707 18.6291C16.4126 20.3872 14.028 21.375 11.5416 21.375Z" fill="currentColor"/>
</svg>
