<svg width="25" height="26" viewBox="0 0 25 26" fill="none" xmlns="http://www.w3.org/2000/svg">
<path d="M16.1458 15.0833H15.3229L15.0313 14.8021C16.0875 13.5772 16.6679 12.0132 16.6667 10.3958C16.6667 9.05669 16.2696 7.74762 15.5256 6.63416C14.7816 5.52071 13.7241 4.65287 12.4869 4.1404C11.2497 3.62793 9.88832 3.49385 8.57491 3.7551C7.2615 4.01636 6.05505 4.66122 5.10813 5.60813C4.16122 6.55505 3.51636 7.7615 3.2551 9.07491C2.99385 10.3883 3.12793 11.7497 3.6404 12.9869C4.15287 14.2241 5.02071 15.2816 6.13416 16.0256C7.24762 16.7696 8.55669 17.1667 9.89584 17.1667C11.5729 17.1667 13.1146 16.5521 14.3021 15.5313L14.5833 15.8229V16.6458L19.7917 21.8438L21.3438 20.2917L16.1458 15.0833ZM9.89584 15.0833C7.30209 15.0833 5.20834 12.9896 5.20834 10.3958C5.20834 7.80209 7.30209 5.70834 9.89584 5.70834C12.4896 5.70834 14.5833 7.80209 14.5833 10.3958C14.5833 12.9896 12.4896 15.0833 9.89584 15.0833Z" fill="#666666"/>
</svg>
