<svg width="26" height="26" viewBox="0 0 26 26" fill="none" xmlns="http://www.w3.org/2000/svg">
<path d="M16.2277 22.1C17.4769 22.1 18.1368 23.4312 17.3036 24.2684C16.7618 24.8132 16.0985 25.249 15.3569 25.5473C14.6154 25.8457 13.8123 26 13 26C12.1878 26 11.3847 25.8457 10.6431 25.5473C9.90156 25.249 9.23825 24.8132 8.69648 24.2684C7.89932 23.4676 8.46831 22.2157 9.61207 22.1091L9.77092 22.1013L16.2277 22.1ZM13 0C14.9612 0 16.619 1.1739 17.1519 2.7833L17.2184 3.0056L17.2299 3.0615C18.8221 3.86973 20.1789 5.00612 21.1891 6.37754C22.1992 7.74895 22.8339 9.31633 23.0411 10.9512L23.0816 11.3243L23.109 11.7V15.5103L23.1393 15.6871C23.3371 16.645 23.9259 17.5015 24.79 18.0882L25.0312 18.2403L25.2651 18.369C26.5071 19.0021 26.0738 20.6648 24.7207 20.7922L24.5532 20.8H1.44689C-0.0376915 20.8 -0.556139 19.0268 0.734925 18.369C1.28519 18.0887 1.76062 17.7033 2.12786 17.24C2.49509 16.7767 2.74523 16.2467 2.8607 15.6871L2.89103 15.5012L2.89247 11.6402C2.98053 9.94224 3.52957 8.28959 4.49155 6.82691C5.45353 5.36422 6.79912 4.13609 8.41054 3.25L8.76869 3.0602L8.78313 3.0043C8.98684 2.22668 9.45095 1.52414 10.1127 0.991699C10.7744 0.459261 11.6018 0.122617 12.483 0.0272999L12.7459 0.00519993L13 0Z" fill="black"/>
</svg>
