<svg width="18" height="19" viewBox="0 0 18 19" fill="none" xmlns="http://www.w3.org/2000/svg">
<path d="M9 18.5C6.61305 18.5 4.32387 17.5518 2.63604 15.864C0.948212 14.1761 0 11.8869 0 9.5C0 7.11305 0.948212 4.82387 2.63604 3.13604C4.32387 1.44821 6.61305 0.5 9 0.5C11.3869 0.5 13.6761 1.44821 15.364 3.13604C17.0518 4.82387 18 7.11305 18 9.5C18 11.8869 17.0518 14.1761 15.364 15.864C13.6761 17.5518 11.3869 18.5 9 18.5ZM9.2835 3.9515C9.21978 3.91136 9.14832 3.88511 9.07376 3.87446C8.99921 3.86381 8.92325 3.86901 8.85085 3.88972C8.77844 3.91042 8.71122 3.94616 8.65356 3.99461C8.5959 4.04305 8.54912 4.10312 8.51625 4.17088L7.16625 6.90688L4.14675 7.34562C4.04696 7.35935 3.95304 7.4009 3.87575 7.4655C3.79846 7.5301 3.74091 7.61515 3.70969 7.71093C3.67847 7.8067 3.67484 7.90933 3.69921 8.00707C3.72358 8.10481 3.77497 8.19372 3.8475 8.26363L6.0345 10.3921L5.517 13.4004C5.50039 13.4992 5.51169 13.6008 5.54964 13.6936C5.58758 13.7864 5.65066 13.8668 5.73178 13.9257C5.8129 13.9846 5.90884 14.0197 6.00883 14.0271C6.10881 14.0344 6.20887 14.0138 6.29775 13.9674L9 12.5476L11.7 13.9663C11.7888 14.0131 11.889 14.0341 11.9892 14.027C12.0894 14.0198 12.1855 13.9847 12.2668 13.9257C12.3481 13.8667 12.4112 13.7861 12.449 13.693C12.4868 13.6 12.4978 13.4982 12.4808 13.3993L11.9655 10.3921L14.1503 8.2625C14.2216 8.19226 14.2719 8.10354 14.2957 8.00629C14.3194 7.90904 14.3156 7.8071 14.2846 7.7119C14.2537 7.6167 14.1968 7.53201 14.1204 7.46731C14.044 7.40262 13.9511 7.36048 13.8521 7.34562L10.8315 6.90688L9.4815 4.17088C9.43769 4.08042 9.36901 4.00432 9.2835 3.9515Z" fill="currentColor"/>
</svg>
