<svg width="25" height="26" viewBox="0 0 25 26" xmlns="http://www.w3.org/2000/svg">
  <path
    d="M16.7031 3.6406C17.264 3.07956 18.0173 2.75285 18.8103 2.72673C19.6032 2.70062 20.3763 2.97705 20.9729 3.49998L21.1229 3.6406L21.8594 4.37706C22.4201 4.93791 22.7467 5.691 22.7728 6.48366C22.7989 7.27632 22.5226 8.04926 22 8.64581L21.8594 8.79581L10.1802 20.476C10.0151 20.6411 9.81505 20.7671 9.59481 20.8448L9.42606 20.8937L4.78647 21.9646C4.62391 22.0024 4.45464 22.0006 4.29292 21.9593C4.1312 21.918 3.98177 21.8385 3.85721 21.7274C3.73264 21.6163 3.6366 21.4769 3.57715 21.321C3.51771 21.165 3.49661 20.997 3.51564 20.8312L3.53647 20.7135L4.60627 16.0729C4.65911 15.8453 4.76234 15.6324 4.90835 15.45L5.02397 15.3198L16.7031 3.6406ZM15.9667 7.32289L6.6021 16.6875L5.9396 19.5604L8.81252 18.8968L18.1771 9.53227L15.9667 7.32289ZM19.65 5.11352C19.4706 4.93417 19.232 4.82643 18.9788 4.81051C18.7257 4.79459 18.4754 4.87159 18.275 5.02706L18.1771 5.11352L17.4396 5.84997L19.65 8.05935L20.3865 7.32289C20.5658 7.14352 20.6736 6.90488 20.6895 6.65173C20.7054 6.39857 20.6284 6.14831 20.4729 5.94789L20.3865 5.84997L19.65 5.11352Z"
    fill="currentColor"
  />
</svg>
