<svg width="30" height="30" viewBox="0 0 30 30" fill="none" xmlns="http://www.w3.org/2000/svg">
<path d="M3.5625 22.6607H5.67321V24.6118C5.67321 26.9496 6.85339 28.1293 9.23571 28.1293H26.4375C28.7973 28.1293 30 26.9491 30 24.6118V12.5507C30 10.2246 28.7973 9.04445 26.4375 9.04445H24.3268V7.20695C24.3268 4.8691 23.1354 3.68945 20.775 3.68945H3.5625C1.19196 3.68945 0 4.8691 0 7.20642V19.1545C0 21.4918 1.19143 22.6607 3.5625 22.6607ZM3.59679 20.8334C2.46214 20.8334 1.82679 20.2318 1.82679 19.0516V7.30874C1.82679 6.12856 2.46214 5.5157 3.59679 5.5157H20.7412C21.8646 5.5157 22.5 6.12856 22.5 7.30874V9.04445H9.23571C6.85339 9.04445 5.67321 10.2134 5.67321 12.5507V20.8339L3.59679 20.8334ZM7.5 12.6525C7.5 11.4723 8.12411 10.8707 9.25875 10.8707H26.4032C27.5266 10.8707 28.1732 11.4723 28.1732 12.6525V22.1266L24.0091 18.2009C23.5535 17.7575 22.9429 17.5092 22.3071 17.5087C21.6718 17.5087 21.127 17.7241 20.5939 18.1891L15.4993 22.7052L13.4684 20.8671C12.9916 20.4471 12.4698 20.2205 11.9255 20.2205C11.4257 20.2205 10.9607 20.4246 10.4727 20.8559L7.5 23.4428V12.6525ZM13.65 18.4843C15.1136 18.4843 16.3162 17.2816 16.3162 15.795C16.3162 14.3432 15.1136 13.1175 13.65 13.1175C12.1746 13.1175 10.972 14.3432 10.972 15.7955C10.972 17.2816 12.1746 18.4843 13.65 18.4843Z" fill="#1E1E1E"/>
</svg>
