<svg width="30" height="30" viewBox="0 0 30 30" fill="none" xmlns="http://www.w3.org/2000/svg">
<path d="M22.5 11.25C22.5 13.9325 21.135 16.145 19.4312 17.8625C17.7275 19.58 15.7937 20.6938 14.9225 21.145L16.0725 23.365C17.0562 22.855 19.2462 21.6 21.2062 19.6238C23.1662 17.6475 25 14.8375 25 11.25H22.5ZM15 3.75C16.9891 3.75 18.8968 4.54018 20.3033 5.9467C21.7098 7.35322 22.5 9.26088 22.5 11.25H25C25 8.59784 23.9464 6.0543 22.0711 4.17893C20.1957 2.30357 17.6522 1.25 15 1.25V3.75ZM7.5 11.25C7.5 9.26088 8.29018 7.35322 9.6967 5.9467C11.1032 4.54018 13.0109 3.75 15 3.75V1.25C12.3478 1.25 9.8043 2.30357 7.92893 4.17893C6.05357 6.0543 5 8.59784 5 11.25H7.5ZM15.0775 21.145C14.2075 20.6938 12.2712 19.58 10.5687 17.8638C8.865 16.145 7.5 13.9325 7.5 11.25H5C5 14.8375 6.83375 17.6475 8.79375 19.6238C10.7537 21.6012 12.9437 22.855 13.9275 23.365L15.0775 21.145ZM14.9225 21.145C14.9466 21.1333 14.9732 21.1273 15 21.1275C15.0342 21.1292 15.06 21.135 15.0775 21.145L13.9275 23.365C14.2589 23.5374 14.627 23.6275 15.0006 23.6275C15.3742 23.6275 15.7423 23.5374 16.0737 23.365L14.9225 21.145ZM17.5 11.25C17.5 11.913 17.2366 12.5489 16.7678 13.0178C16.2989 13.4866 15.663 13.75 15 13.75V16.25C16.3261 16.25 17.5979 15.7232 18.5355 14.7855C19.4732 13.8479 20 12.5761 20 11.25H17.5ZM15 8.75C15.663 8.75 16.2989 9.01339 16.7678 9.48223C17.2366 9.95107 17.5 10.587 17.5 11.25H20C20 9.92392 19.4732 8.65215 18.5355 7.71447C17.5979 6.77678 16.3261 6.25 15 6.25V8.75ZM12.5 11.25C12.5 10.587 12.7634 9.95107 13.2322 9.48223C13.7011 9.01339 14.337 8.75 15 8.75V6.25C13.6739 6.25 12.4021 6.77678 11.4645 7.71447C10.5268 8.65215 10 9.92392 10 11.25H12.5ZM15 13.75C14.337 13.75 13.7011 13.4866 13.2322 13.0178C12.7634 12.5489 12.5 11.913 12.5 11.25H10C10 12.5761 10.5268 13.8479 11.4645 14.7855C12.4021 15.7232 13.6739 16.25 15 16.25V13.75Z" fill="#1E1E1E"/>
<path d="M24.7425 21.875C25.73 22.445 26.25 23.0912 26.25 23.75C26.25 24.4088 25.73 25.055 24.7425 25.625C23.755 26.195 22.335 26.6687 20.625 26.9975C18.915 27.3262 16.975 27.5 15 27.5C13.025 27.5 11.085 27.3262 9.375 26.9975C7.665 26.6687 6.245 26.195 5.2575 25.625C4.27 25.055 3.75 24.4088 3.75 23.75C3.75 23.0912 4.27 22.445 5.2575 21.875" stroke="#1E1E1E" stroke-width="2.08333" stroke-linecap="round"/>
</svg>
