<svg width="22" height="19" viewBox="0 0 22 19" fill="none" xmlns="http://www.w3.org/2000/svg">
<path d="M1.02906 18.875C0.838084 18.875 0.664473 18.8274 0.508223 18.7323C0.351973 18.6372 0.230446 18.5111 0.14364 18.3542C0.0568344 18.1972 0.00926501 18.0278 0.000931678 17.8458C-0.00740166 17.6639 0.0401677 17.4861 0.14364 17.3125L9.77906 0.645833C9.88322 0.472222 10.0179 0.342014 10.1832 0.255208C10.3485 0.168403 10.5176 0.125 10.6905 0.125C10.8634 0.125 11.0329 0.168403 11.1988 0.255208C11.3648 0.342014 11.4992 0.472222 11.602 0.645833L21.2374 17.3125C21.3416 17.4861 21.3895 17.6642 21.3811 17.8469C21.3728 18.0295 21.3249 18.1986 21.2374 18.3542C21.1499 18.5097 21.0284 18.6358 20.8728 18.7323C20.7172 18.8288 20.5436 18.8764 20.352 18.875H1.02906ZM10.6905 15.75C10.9857 15.75 11.2332 15.65 11.4332 15.45C11.6332 15.25 11.7329 15.0028 11.7322 14.7083C11.7315 14.4139 11.6315 14.1667 11.4322 13.9667C11.2329 13.7667 10.9857 13.6667 10.6905 13.6667C10.3954 13.6667 10.1482 13.7667 9.94885 13.9667C9.74954 14.1667 9.64954 14.4139 9.64885 14.7083C9.64815 15.0028 9.74815 15.2503 9.94885 15.451C10.1495 15.6517 10.3968 15.7514 10.6905 15.75ZM10.6905 12.625C10.9857 12.625 11.2332 12.525 11.4332 12.325C11.6332 12.125 11.7329 11.8778 11.7322 11.5833V8.45833C11.7322 8.16319 11.6322 7.91597 11.4322 7.71667C11.2322 7.51736 10.985 7.41736 10.6905 7.41667C10.3961 7.41597 10.1488 7.51597 9.94885 7.71667C9.74885 7.91736 9.64885 8.16458 9.64885 8.45833V11.5833C9.64885 11.8785 9.74885 12.126 9.94885 12.326C10.1488 12.526 10.3961 12.6257 10.6905 12.625Z" fill="#FFCB0C"/>
</svg>
