<svg width="17" height="20" viewBox="0 0 17 20" fill="none" xmlns="http://www.w3.org/2000/svg">
<path d="M3.1875 19.4998C2.60313 19.4998 2.10304 19.2932 1.68725 18.8801C1.27146 18.4671 1.06321 17.9699 1.0625 17.3886V3.66642C0.761462 3.66642 0.509295 3.56509 0.306004 3.36242C0.102712 3.15976 0.000711997 2.90924 3.66379e-06 2.61087C-0.000704669 2.3125 0.101295 2.06198 0.306004 1.85931C0.510712 1.65664 0.762878 1.55531 1.0625 1.55531H5.3125C5.3125 1.25624 5.4145 1.00572 5.6185 0.803756C5.8225 0.601793 6.07467 0.50046 6.375 0.499756H10.625C10.926 0.499756 11.1786 0.601089 11.3826 0.803756C11.5866 1.00642 11.6882 1.25694 11.6875 1.55531H15.9375C16.2385 1.55531 16.4911 1.65664 16.6951 1.85931C16.8991 2.06198 17.0007 2.3125 17 2.61087C16.9993 2.90924 16.8973 3.16011 16.694 3.36348C16.4907 3.56685 16.2385 3.66783 15.9375 3.66642V17.3886C15.9375 17.9692 15.7296 18.4664 15.3138 18.8801C14.898 19.2939 14.3976 19.5005 13.8125 19.4998H3.1875ZM13.8125 3.66642H3.1875V17.3886H13.8125V3.66642ZM6.375 15.2775C6.67604 15.2775 6.92856 15.1762 7.13256 14.9735C7.33656 14.7709 7.43821 14.5203 7.4375 14.222V6.83309C7.4375 6.53401 7.3355 6.2835 7.1315 6.08153C6.9275 5.87957 6.67533 5.77824 6.375 5.77753C6.07467 5.77683 5.8225 5.87816 5.6185 6.08153C5.4145 6.2849 5.3125 6.53542 5.3125 6.83309V14.222C5.3125 14.5211 5.4145 14.7719 5.6185 14.9746C5.8225 15.1773 6.07467 15.2782 6.375 15.2775ZM10.625 15.2775C10.926 15.2775 11.1786 15.1762 11.3826 14.9735C11.5866 14.7709 11.6882 14.5203 11.6875 14.222V6.83309C11.6875 6.53401 11.5855 6.2835 11.3815 6.08153C11.1775 5.87957 10.9253 5.77824 10.625 5.77753C10.3247 5.77683 10.0725 5.87816 9.8685 6.08153C9.6645 6.2849 9.5625 6.53542 9.5625 6.83309V14.222C9.5625 14.5211 9.6645 14.7719 9.8685 14.9746C10.0725 15.1773 10.3247 15.2782 10.625 15.2775Z" fill="#FF3336"/>
</svg>
