<svg width="136" height="135" viewBox="0 0 136 135" fill="none" xmlns="http://www.w3.org/2000/svg">
<path d="M38.1001 11.2801C44.5996 11.2777 50.949 11.2766 57.2985 11.2715C60.1763 11.2691 60.8641 11.9366 60.8692 14.7732C60.873 16.923 60.8726 19.0729 60.8651 21.2227C60.8549 24.19 59.9047 25.1171 56.8598 25.1037C47.7107 25.0634 38.5616 25.0125 29.4125 24.9708C26.3955 24.957 25.9302 25.392 25.9215 28.4289C25.9061 33.8282 25.9276 39.2277 25.9473 44.627C25.9551 46.7565 26.5749 47.3355 28.7719 47.3347C38.2712 47.331 47.7705 47.3222 57.2698 47.3243C60.2545 47.3249 60.8396 47.928 60.8456 50.9408C60.8498 53.0907 60.858 55.2406 60.8472 57.3904C60.8342 60.0004 59.8289 61.0294 57.2104 61.0319C44.7113 61.0442 32.2122 61.0394 19.7131 61.04C18.0632 61.0401 16.4132 61.0499 14.7634 61.0321C11.9846 61.002 10.888 59.8959 10.882 57.0771C10.8583 45.928 10.8507 34.7787 10.8295 23.6295C10.824 20.7798 10.7763 17.9302 10.7741 15.0805C10.772 12.2921 11.8135 11.2527 14.5519 11.2554C22.3513 11.2631 30.1507 11.2716 38.1001 11.2801Z" fill="#F6F5F3"/>
<path d="M89.5831 100.5C89.5862 103.149 89.5719 105.649 89.5967 108.147C89.6268 111.179 90.2609 111.788 93.3592 111.792C103.156 111.802 112.953 111.803 122.75 111.81C125.798 111.812 126.679 112.652 126.738 115.712C126.78 117.861 126.816 120.013 126.726 122.159C126.614 124.872 125.472 125.972 122.795 125.971C107.75 125.967 92.7052 125.94 77.6604 125.905C75.419 125.9 74.1183 124.638 74.1061 122.369C74.0256 107.424 73.9682 92.4791 73.9287 77.5342C73.9235 75.5672 74.8808 74.7051 76.798 74.7266C80.0463 74.7629 83.2947 74.7934 86.5432 74.8223C88.8339 74.8427 89.7001 75.6748 89.6938 78.0078C89.6735 85.4552 89.6222 92.9026 89.5831 100.5Z" fill="#F5F3F2"/>
<path d="M110.611 61.0487C99.6211 61.0458 88.7713 61.0465 77.9215 61.0374C74.8752 61.0349 73.8203 59.9568 73.8119 56.8682C73.7736 42.7685 73.7375 28.6688 73.7034 14.569C73.6968 11.8522 74.3994 11.2354 77.0982 11.3164C79.8959 11.4004 82.6968 11.3857 85.4964 11.3954C88.2767 11.405 89.0273 12.1284 89.0142 14.97C88.972 24.1195 88.8988 33.2689 88.8564 42.4185C88.8348 47.0671 89.1072 47.3216 93.752 47.3236C102.852 47.3277 111.952 47.3298 121.052 47.3372C124.112 47.3397 124.94 48.1584 124.984 51.2638C125.011 53.2634 125.047 55.2654 124.981 57.2631C124.891 60.0253 123.721 61.1214 120.951 61.1179C117.551 61.1137 114.151 61.0733 110.611 61.0487Z" fill="#F6F4F3"/>
<path d="M11.7496 123.662C12.5788 123.768 13.4315 124.165 14.2852 124.167C28.62 124.202 42.955 124.202 57.2896 124.148C58.2192 124.144 59.1469 123.63 60.1752 123.306C59.8644 123.694 59.5287 124.319 59.0248 124.518C58.3574 124.782 57.5586 124.779 56.8162 124.78C42.8278 124.794 28.8394 124.796 14.8509 124.781C13.7382 124.78 12.5056 124.993 11.7496 123.662Z" fill="#FFAC33"/>
<path d="M11.943 74.7455C11.8065 75.017 11.5702 75.3105 11.244 75.6363C11.3838 75.3682 11.6135 75.0678 11.943 74.7455Z" fill="#FFAC33"/>
<path d="M25.3493 77.5171C25.375 77.6024 25.4266 77.6671 25.6058 77.843C25.8677 78.5423 26.1409 79.1042 26.1678 79.6776C26.2612 81.6681 26.3061 83.6628 26.3007 85.6556C26.2926 88.6451 26.8411 89.2161 29.8657 89.1925C34.5019 89.1561 39.1381 89.1163 43.7743 89.0818C46.0102 89.0652 46.6904 88.4193 46.7356 86.127C46.7749 84.1336 46.6771 82.1354 46.7787 80.1464C46.8224 79.2919 47.2171 78.4553 47.4524 77.6106C47.4524 77.6106 47.4227 77.6071 47.5311 77.5751C48.4492 77.3712 49.2557 77.0715 50.0692 77.0514C52.5425 76.9904 55.0216 76.9669 57.4919 77.0767C58.4896 77.1211 59.4703 77.5486 60.4588 77.8018C60.4711 77.8896 60.5134 77.9591 60.6607 78.1574C60.9176 79.2706 61.2545 80.2362 61.2581 81.203C61.3095 95.2364 61.3276 109.27 61.3076 123.303C61.3063 124.211 60.9283 125.118 60.7256 126.025C60.7256 126.025 60.747 126.028 60.6446 126.065C59.6136 126.378 58.686 126.892 57.7564 126.896C43.4217 126.95 29.0868 126.949 14.752 126.915C13.8983 126.913 13.0456 126.516 12.1924 126.302C12.1924 126.302 12.1905 126.324 12.157 126.221C11.7758 124.85 11.1427 123.586 11.1263 122.313C11.0113 113.385 10.9792 104.456 11.0124 95.5274C11.0313 90.4447 11.2144 85.3625 11.3489 80.2807C11.3656 79.6501 11.5382 79.0237 11.6385 78.3953C11.6385 78.3953 11.6157 78.3942 11.7082 78.373C12.037 78.0584 12.2733 77.7649 12.5097 77.4714C12.5097 77.4714 12.4764 77.4622 12.5674 77.4687C12.816 77.3843 12.9736 77.2935 13.1312 77.2026C13.1312 77.2026 13.1021 77.1959 13.239 77.2112C15.8024 77.204 18.2298 77.1335 20.6552 77.1763C22.2214 77.204 23.7847 77.3978 25.3493 77.5171ZM26.7094 113.3C26.7094 113.3 26.7345 113.306 26.8571 113.492C27.3598 113.68 27.8615 114.027 28.3653 114.03C33.558 114.063 38.7515 114.08 43.9436 114.014C45.9426 113.988 46.6539 113.249 46.7134 111.252C46.7876 108.758 46.7619 106.26 46.7068 103.765C46.6723 102.203 45.9661 101.436 44.3813 101.421C40.0412 101.38 35.7001 101.444 31.1151 101.424C30.7032 101.44 30.2912 101.456 29.622 101.409C26.8179 101.422 26.1972 102.028 26.182 104.8C26.1698 107.032 26.1381 109.265 26.1972 111.495C26.2131 112.092 26.53 112.681 26.7094 113.3Z" fill="#F6F4F3"/>
</svg>
