<svg width="27" height="22" viewBox="0 0 27 22" fill="none" xmlns="http://www.w3.org/2000/svg">
<path d="M3.5875 16.6395H5.41679V18.3304C5.41679 20.3566 6.43961 21.3789 8.50429 21.3789H23.4125C25.4577 21.3789 26.5 20.3561 26.5 18.3304V7.8775C26.5 5.86158 25.4577 4.83875 23.4125 4.83875H21.5832V3.24625C21.5832 1.22011 20.5506 0.197754 18.505 0.197754H3.5875C1.53304 0.197754 0.5 1.22011 0.5 3.24579V13.6008C0.5 15.6264 1.53257 16.6395 3.5875 16.6395ZM3.61721 15.0558C2.63386 15.0558 2.08321 14.5344 2.08321 13.5116V3.33447C2.08321 2.31165 2.63386 1.7805 3.61721 1.7805H18.4757C19.4494 1.7805 20 2.31165 20 3.33447V4.83875H8.50429C6.43961 4.83875 5.41679 5.85183 5.41679 7.8775V15.0563L3.61721 15.0558ZM7 7.96572C7 6.9429 7.54089 6.4215 8.52425 6.4215H23.3828C24.3564 6.4215 24.9168 6.9429 24.9168 7.96572V16.1766L21.3079 12.7743C20.913 12.39 20.3839 12.1749 19.8329 12.1745C19.2822 12.1745 18.81 12.3611 18.3481 12.7641L13.9327 16.678L12.1726 15.0851C11.7594 14.7211 11.3072 14.5247 10.8355 14.5247C10.4023 14.5247 9.99929 14.7016 9.57632 15.0753L7 17.3174V7.96572ZM12.33 13.0199C13.5984 13.0199 14.6407 11.9776 14.6407 10.6892C14.6407 9.431 13.5984 8.36872 12.33 8.36872C11.0514 8.36872 10.009 9.431 10.009 10.6897C10.009 11.9776 11.0514 13.0199 12.33 13.0199Z" fill="#FF9400" fill-opacity="0.87"/>
</svg>
