<svg width="27" height="30" viewBox="0 0 27 30" fill="none" xmlns="http://www.w3.org/2000/svg">
<path d="M21.8925 13.8812C21.9648 13.4244 22.0007 12.9625 22 12.5C22 9.84783 20.9464 7.3043 19.0711 5.42893C17.1957 3.55357 14.6522 2.5 12 2.5C9.34783 2.5 6.8043 3.55357 4.92893 5.42893C3.05357 7.3043 2 9.84783 2 12.5C2 18.7412 8.92375 25.2412 11.2488 27.2487C11.4653 27.4116 11.729 27.4997 12 27.4997C12.271 27.4997 12.5347 27.4116 12.7512 27.2487C13.0999 26.9472 13.4433 26.6397 13.7812 26.3263" stroke="white" stroke-width="3.5" stroke-linecap="round" stroke-linejoin="round"/>
<path d="M12 16.25C14.0711 16.25 15.75 14.5711 15.75 12.5C15.75 10.4289 14.0711 8.75 12 8.75C9.92893 8.75 8.25 10.4289 8.25 12.5C8.25 14.5711 9.92893 16.25 12 16.25Z" stroke="white" stroke-width="3.5" stroke-linecap="round" stroke-linejoin="round"/>
<path d="M17 22.5H24.5M20.75 18.75V26.25" stroke="white" stroke-width="3.5" stroke-linecap="round" stroke-linejoin="round"/>
</svg>
