<svg width="11" height="16" viewBox="0 0 11 16" fill="none" xmlns="http://www.w3.org/2000/svg">
<path d="M0.414103 5.06807C0.310634 5.168 0.228103 5.28754 0.171326 5.41971C0.11455 5.55188 0.0846649 5.69404 0.0834149 5.83788C0.082165 5.98173 0.109575 6.12438 0.164046 6.25752C0.218517 6.39066 0.298958 6.51161 0.400675 6.61333C0.502392 6.71505 0.623348 6.79549 0.756486 6.84996C0.889624 6.90443 1.03228 6.93184 1.17612 6.93059C1.31997 6.92934 1.46212 6.89946 1.59429 6.84268C1.72646 6.7859 1.846 6.70337 1.94594 6.5999L4.43002 4.11582V14.5007C4.43002 14.788 4.54416 15.0635 4.74732 15.2667C4.95048 15.4698 5.22603 15.584 5.51335 15.584C5.80067 15.584 6.07622 15.4698 6.27938 15.2667C6.48255 15.0635 6.59669 14.788 6.59669 14.5007V4.11582L9.08077 6.5999C9.28509 6.79724 9.55874 6.90643 9.84279 6.90396C10.1268 6.9015 10.3985 6.78756 10.5994 6.58671C10.8003 6.38585 10.9142 6.11413 10.9167 5.83009C10.9191 5.54604 10.8099 5.27239 10.6126 5.06807L6.27927 0.734735C6.07611 0.531641 5.80061 0.41755 5.51335 0.41755C5.22609 0.41755 4.95059 0.531641 4.74744 0.734735L0.414103 5.06807Z" fill="white"/>
</svg>
