<svg width="30" height="30" viewBox="0 0 30 30" fill="none" xmlns="http://www.w3.org/2000/svg">
<path d="M16.4137 6.95489L23.0419 13.583L7.5731 29.0518H0.944977V22.4221L16.4137 6.95489ZM18.6231 4.74395L21.9372 1.42989C22.2302 1.13697 22.6275 0.972412 23.0419 0.972412C23.4562 0.972412 23.8535 1.13697 24.1465 1.42989L28.5668 5.84864C28.7121 5.99375 28.8274 6.16608 28.906 6.35576C28.9846 6.54545 29.0251 6.74877 29.0251 6.95411C29.0251 7.15945 28.9846 7.36277 28.906 7.55245C28.8274 7.74214 28.7121 7.91446 28.5668 8.05958L25.2512 11.3736L18.6231 4.74395Z" fill="url(#paint0_linear_2598_2243)" fill-opacity="0.87"/>
<defs>
<linearGradient id="paint0_linear_2598_2243" x1="14.985" y1="0.972412" x2="14.985" y2="29.0518" gradientUnits="userSpaceOnUse">
<stop offset="1" stop-color="#FF6A00"/>
</linearGradient>
</defs>
</svg>
