<svg width="805" height="356" viewBox="0 0 805 356" fill="none" xmlns="http://www.w3.org/2000/svg">
<path fill-rule="evenodd" clip-rule="evenodd" d="M0 210.72C0 225.6 0.576 235.296 4.128 249.504C6.336 258.336 9.504 266.496 13.152 274.656C15.744 280.416 19.008 285.696 22.176 291.072C26.88 299.04 33.12 305.568 38.976 312.48C40.896 314.784 43.488 316.608 45.504 318.72C46.944 320.256 48.384 321.312 50.016 322.656C50.88 323.424 51.264 323.808 52.224 324.576L59.616 330.048C67.968 336.192 72.864 338.208 81.312 342.528C84.96 344.352 89.28 346.08 93.312 347.424C106.752 352.128 121.152 354.72 135.744 355.104H143.712C156.768 354.72 169.728 352.608 181.824 348.48L195.456 343.296C206.976 338.304 220.8 329.856 229.92 321.312C233.184 318.24 236.544 315.456 239.616 312.192C241.152 310.56 242.496 308.64 244.224 307.104C245.376 309.216 255.36 318.432 257.376 319.968C267.168 327.936 278.592 335.808 290.4 340.608L303.36 345.504C305.76 346.272 307.872 346.848 310.368 347.616L321.12 350.016C322.656 350.208 324 350.496 325.248 350.592C355.584 355.104 386.688 348.288 412.896 332.736C414.528 331.776 415.68 330.912 417.312 329.952C420.288 328.224 422.976 326.016 425.76 324C427.2 322.944 428.448 321.984 429.696 320.736C430.464 320.064 430.848 319.872 431.616 319.2L437.472 313.824C437.76 313.536 437.568 313.728 437.952 313.344C437.952 313.344 438.048 313.248 438.144 313.152L439.872 311.424C441.216 309.888 443.04 308.448 444.288 306.816C447.36 302.688 449.952 300 453.888 294.72C454.944 293.28 455.808 291.936 456.768 290.4C458.688 287.52 460.608 284.544 462.144 281.376C463.008 279.552 463.776 278.4 464.64 276.672C467.616 270.816 473.952 256.416 474.432 250.464C476.256 252.576 478.752 258.24 480.096 260.736C482.016 264.192 483.552 267.84 485.664 271.2L507.84 312.96C508.512 314.4 509.088 315.072 509.76 316.416C512.352 321.6 516 329.184 519.264 333.504C522.432 337.728 525.888 340.8 530.496 343.584C543.456 351.36 560.832 350.016 572.544 340.8C573.696 339.936 574.56 339.168 575.52 338.208C577.44 336.288 579.36 334.272 580.8 331.872C584.16 326.4 588 317.952 590.784 313.344C591.552 312 592.032 311.04 592.704 309.696L602.592 291.072C603.36 289.536 604.032 288.576 604.704 287.232C609.024 278.496 614.016 269.856 618.528 261.216L624.672 249.792C630.048 239.904 635.04 229.824 640.608 219.936L652.512 197.376C653.28 196.032 653.76 195.168 654.528 193.728C655.296 192.192 655.872 191.424 656.64 189.888L660.672 182.304C661.44 181.056 661.92 179.904 662.592 178.56L684.48 137.472C691.296 125.088 690.72 110.688 683.616 98.688C682.848 97.344 682.272 96.768 681.408 95.52L678.336 92.064C677.856 91.584 678.144 91.872 677.664 91.488L673.344 87.936C670.08 85.44 666.528 84 662.592 82.752C657.216 80.928 650.208 80.736 644.256 81.888C635.712 83.616 629.856 87.552 624.096 93.12C622.56 94.656 620.544 97.344 619.488 99.168L614.112 109.44C613.536 110.592 612.864 111.648 612.288 112.896C611.136 115.2 609.984 117.6 608.736 120L566.016 203.328C565.44 204.48 564.768 205.632 564.192 206.784L560.736 213.6C560.352 214.272 560.256 214.56 559.872 215.232C559.584 215.808 559.68 215.616 559.488 216.096C559.2 216.576 559.296 216.576 559.008 217.152C555.648 223.104 552.48 228.864 550.848 235.584L549.984 238.464C549.984 238.56 549.888 238.848 549.792 238.944C549.504 239.616 549.696 239.232 549.504 239.52C548.64 235.68 547.584 231.456 545.76 227.904C545.184 226.752 544.608 225.6 543.936 224.352L481.824 103.392C481.44 102.72 481.344 102.528 480.96 101.76C475.776 91.392 464.256 82.56 451.584 81.216C450.24 81.12 447.648 80.736 446.592 80.832C432.48 81.984 420.672 88.32 414.048 100.704C409.152 109.824 408.384 119.712 411.168 129.696C412.992 136.32 419.136 145.92 422.496 152.544C423.168 153.888 423.744 154.848 424.512 156.192L438.432 182.4C415.296 182.4 392.256 182.4 369.12 182.4C358.752 182.4 349.344 183.168 342.24 190.272C339.072 193.44 336.768 195.936 334.752 200.064C326.304 216.864 333.792 238.464 351.456 245.184C358.464 247.872 365.088 247.296 374.4 247.296C382.848 247.296 391.296 247.296 399.84 247.296C398.688 249.408 396.96 251.712 395.424 253.536C389.088 260.832 386.976 263.136 378.336 268.704C377.664 269.184 377.472 269.28 376.8 269.664C376.128 269.952 375.744 270.24 374.976 270.624C358.656 278.976 335.328 280.32 319.008 272.064C314.016 269.568 309.312 266.784 305.184 263.04C301.056 259.392 297.504 255.264 294.24 250.752C293.184 249.216 292.32 247.68 291.36 246.048C282.432 230.496 280.416 209.952 286.176 192.864C287.136 190.08 288 187.584 289.152 185.184L295.2 174.912C298.08 170.688 301.728 167.04 305.568 163.68C310.464 159.264 316.224 156 322.368 153.504C335.712 148.128 338.592 151.776 351.168 139.104C352.992 137.28 354.336 134.88 355.68 132.672C361.248 123.552 361.92 109.152 357.312 99.552C355.392 95.52 352.992 91.872 349.92 88.704L348.768 87.648C346.176 85.344 343.584 83.136 340.416 81.6C324.768 73.728 305.664 79.968 290.784 86.304L277.824 92.832C269.376 97.92 262.944 102.336 255.36 108.96C252.192 111.648 247.968 115.392 245.568 118.56L242.88 121.536C237.792 127.584 233.088 133.728 228.96 140.544C226.944 143.904 225.312 146.784 223.488 150.432C214.176 168.96 208.512 189.024 208.512 213.216C208.512 220.032 208.992 226.56 209.856 232.896C209.952 233.568 210.432 235.968 210.432 236.736C210.336 238.464 207.648 241.728 206.592 243.264L192.96 259.392L187.2 264.288C186.432 264.864 185.76 265.44 184.896 266.112C183.936 266.784 183.264 267.168 182.304 267.936C172.8 274.848 156.576 280.992 144.192 280.992C140.448 280.992 136.32 281.28 132.48 280.8C130.944 280.608 130.08 280.512 128.544 280.32C124.32 279.648 118.944 278.112 115.296 276.576C99.936 270.24 87.552 258.72 80.352 243.84C70.464 223.2 72.192 199.488 83.808 180C89.184 170.976 97.056 163.488 106.08 158.016L114.624 153.696L124.128 150.624C127.392 149.664 131.136 149.28 134.784 148.8C144.576 147.36 151.872 148.128 160.032 142.368C160.608 141.984 161.184 141.504 161.856 141.024C169.632 134.688 176.064 124.992 176.064 113.856C176.064 105.504 175.008 99.456 171.072 92.832C170.496 91.872 170.112 91.104 169.344 90.144C165.216 84.672 160.992 81.024 154.56 77.952C140.544 71.136 117.216 76.032 104.064 79.104L94.272 82.08C91.968 82.848 90.24 83.52 88.128 84.384C86.016 85.248 84.096 86.112 81.984 86.976C74.304 90.144 67.008 94.848 60.192 99.36C53.376 103.872 47.232 109.344 41.472 115.104C38.496 118.08 35.904 120.576 33.312 123.84C26.88 131.808 20.736 140.064 16.128 149.28C15.552 150.432 15.072 151.104 14.592 152.16C14.016 153.408 13.728 154.08 13.248 155.136L8.256 167.136C3.264 180.384 0.096 196.032 0.096 210.72H0Z" fill="#EE2E24"/>
<path fill-rule="evenodd" clip-rule="evenodd" d="M757.248 85.6321L757.344 84.9601C755.712 84.5761 753.696 83.7121 752.16 83.1361C745.536 80.6401 747.936 80.6401 741.504 83.0401C739.872 83.6161 737.568 84.2881 736.224 84.9601V75.8401L722.112 67.9681L721.152 67.8721C717.6 69.5041 706.08 73.2481 703.776 74.4961C692.448 80.8321 700.032 99.1681 713.568 93.6961L731.136 87.1681C732.288 86.7841 734.592 85.6321 735.84 85.5361C735.84 89.6641 735.36 100.992 736.032 104.16C737.664 111.936 746.976 115.488 753.504 110.304C755.232 108.96 756.672 106.752 757.248 104.256C757.728 102.048 758.112 87.6481 757.248 85.4401V85.6321Z" fill="#EE2E24"/>
<path fill-rule="evenodd" clip-rule="evenodd" d="M746.688 37.344V38.592L752.256 54.24C753.696 54.144 762.432 48.96 764.352 47.808C765.312 47.232 765.312 46.56 765.696 47.52C766.368 46.464 765.504 47.04 766.56 46.08L776.832 16.8C777.696 14.304 778.272 13.536 778.176 10.368C778.176 4.704 773.952 0.768 769.152 0H765.792C763.68 0.384 761.664 1.344 759.936 3.072C758.208 4.8 758.016 5.472 757.056 7.968L746.688 37.344Z" fill="#F26F21"/>
<path fill-rule="evenodd" clip-rule="evenodd" d="M726.912 46.272L727.488 47.136L737.568 52.704C738.816 53.472 739.872 53.856 740.928 54.624L746.592 38.592V37.344L738.336 13.824C736.608 8.928 735.264 1.632 728.448 0.192C728.16 0.096 727.776 0.096 727.488 0H724.224C719.424 0.672 715.392 4.32 715.008 10.176C714.816 13.248 717.312 19.392 718.464 22.368C720 26.4 721.152 30.336 722.592 34.176C723.36 36.096 723.936 38.016 724.608 39.936C724.992 41.088 725.184 41.856 725.664 43.008C726.144 44.256 726.432 44.832 726.72 46.176L726.912 46.272Z" fill="#EE2E24"/>
<path fill-rule="evenodd" clip-rule="evenodd" d="M766.656 46.08C765.6 47.04 766.464 46.464 765.792 47.52L760.128 63.648L771.456 67.872H772.416L795.84 54.432C799.968 52.128 806.016 49.056 804.288 40.896C802.944 34.752 796.704 31.392 790.848 32.832C788.736 33.408 774.816 41.664 771.648 43.392C769.92 44.352 768.48 45.312 766.752 46.08H766.656Z" fill="#EE2E24"/>
<path fill-rule="evenodd" clip-rule="evenodd" d="M721.248 67.9681L722.208 68.0641C723.36 67.1041 731.808 64.5121 733.536 63.6481C732.96 62.4001 732.576 60.8641 732.096 59.5201L729.12 51.1681C728.736 49.9201 728.16 48.1921 727.584 47.0401L727.008 46.1761L712.8 38.0161C711.552 37.3441 704.544 33.2161 703.2 32.8321C701.472 32.3521 698.112 32.3521 696.384 33.0241C693.12 34.1761 689.856 37.4401 689.376 41.0881C688.032 50.8801 695.424 52.8961 702.432 57.1201L716.64 65.1841C717.696 65.7601 720.672 67.2961 721.344 67.8721L721.248 67.9681Z" fill="#F26F21"/>
<path fill-rule="evenodd" clip-rule="evenodd" d="M757.344 84.9601L757.248 85.6321C758.688 85.7281 764.736 88.1281 766.368 88.8001C767.808 89.3761 769.152 89.8561 770.688 90.4321L779.52 93.7921C784.512 95.8081 789.408 94.8481 792.672 90.7201C796.992 85.2481 794.976 77.4721 789.6 74.5921C788.256 73.9201 786.816 73.4401 785.28 72.8641L772.224 67.8721H771.264L757.152 75.8401L757.248 84.9601H757.344Z" fill="#F26F21"/>
</svg>
