<svg width="46" height="46" viewBox="0 0 46 46" fill="none" xmlns="http://www.w3.org/2000/svg">
<g filter="url(#filter0_d_686_11507)">
<rect x="2" width="38" height="38" rx="15" fill="#F4F9FF" shape-rendering="crispEdges"/>
<path d="M31.2677 13.1591C30.9422 12.4207 30.5148 11.7315 29.998 11.1116L27.259 13.8505C27.9002 14.23 28.6556 14.3688 29.3898 14.2421C30.124 14.1155 30.7892 13.7315 31.2661 13.1591M26.1464 12.7396L28.8854 10.0006C28.266 9.48394 27.5773 9.05656 26.8394 8.73087C26.2666 9.2079 25.8824 9.87335 25.7557 10.6079C25.629 11.3425 25.7681 12.0982 26.148 12.7396M24.1429 11.143C24.1429 12.1613 24.4666 13.1041 25.015 13.8741L23.75 15.1391L18.2689 9.65643C19.2538 8.94089 20.3783 8.44069 21.5693 8.18836C22.7603 7.93603 23.9911 7.93723 25.1816 8.19187C24.5095 9.02866 24.1431 10.0697 24.1429 11.143ZM24.861 16.2501L26.126 14.9851C26.896 15.5351 27.8389 15.8572 28.8571 15.8572C29.9302 15.8575 30.9713 15.4916 31.8083 14.8201C31.935 15.4089 31.999 16.0165 32 16.643C32 18.5444 31.3856 20.3044 30.3437 21.7328L24.861 16.2501ZM29.3034 22.9145L23.75 17.3611L22.7993 18.3118C24.4336 20.1747 25.4363 22.507 25.664 24.9746C27.0469 24.5928 28.2914 23.873 29.3034 22.9145ZM15.0239 14.3361C15.4057 12.9533 16.1239 11.7087 17.0824 10.6967L22.639 16.2501L21.6883 17.2008C19.8254 15.5666 17.4915 14.5638 15.0239 14.3361ZM12.3571 15.8572C11.732 15.8572 11.1324 16.1056 10.6904 16.5476C10.2483 16.9897 10 17.5892 10 18.2144V19.7858C10 22.4948 11.0761 25.0928 12.9917 27.0083C14.9072 28.9239 17.5053 30 20.2143 30H21.7857C22.4109 30 23.0104 29.7517 23.4525 29.3096C23.8945 28.8676 24.1429 28.268 24.1429 27.6429V26.0715C24.1429 23.3625 23.0667 20.7645 21.1512 18.8489C19.2356 16.9334 16.6376 15.8572 13.9286 15.8572H12.3571ZM15.3366 21.1938C15.4096 21.1206 15.4963 21.0626 15.5917 21.0229C15.6872 20.9833 15.7895 20.9629 15.8929 20.9629C15.9962 20.9629 16.0985 20.9833 16.194 21.0229C16.2895 21.0626 16.3762 21.1206 16.4491 21.1938L18.8063 23.5509C18.8793 23.624 18.9373 23.7107 18.9768 23.8061C19.0164 23.9016 19.0367 24.0039 19.0367 24.1072C19.0367 24.2105 19.0164 24.3128 18.9768 24.4082C18.9373 24.5037 18.8793 24.5904 18.8063 24.6635C18.7332 24.7365 18.6465 24.7945 18.5511 24.834C18.4556 24.8735 18.3533 24.8939 18.25 24.8939C18.1467 24.8939 18.0444 24.8735 17.9489 24.834C17.8535 24.7945 17.7668 24.7365 17.6937 24.6635L15.3366 22.3063C15.2634 22.2334 15.2053 22.1467 15.1657 22.0512C15.1261 21.9557 15.1057 21.8534 15.1057 21.7501C15.1057 21.6467 15.1261 21.5444 15.1657 21.4489C15.2053 21.3535 15.2634 21.2668 15.3366 21.1938Z" fill="#005B9D"/>
</g>
<defs>
<filter id="filter0_d_686_11507" x="0" y="0" width="46" height="46" filterUnits="userSpaceOnUse" color-interpolation-filters="sRGB">
<feFlood flood-opacity="0" result="BackgroundImageFix"/>
<feColorMatrix in="SourceAlpha" type="matrix" values="0 0 0 0 0 0 0 0 0 0 0 0 0 0 0 0 0 0 127 0" result="hardAlpha"/>
<feOffset dx="2" dy="4"/>
<feGaussianBlur stdDeviation="2"/>
<feComposite in2="hardAlpha" operator="out"/>
<feColorMatrix type="matrix" values="0 0 0 0 0 0 0 0 0 0 0 0 0 0 0 0 0 0 0.25 0"/>
<feBlend mode="normal" in2="BackgroundImageFix" result="effect1_dropShadow_686_11507"/>
<feBlend mode="normal" in="SourceGraphic" in2="effect1_dropShadow_686_11507" result="shape"/>
</filter>
</defs>
</svg>
