<svg width="46" height="46" viewBox="0 0 46 46" fill="none" xmlns="http://www.w3.org/2000/svg">
<g filter="url(#filter0_d_686_11528)">
<rect x="2" width="38" height="38" rx="15" fill="#E8F3FF" shape-rendering="crispEdges"/>
<path d="M13.35 8C13.1246 8 12.9084 8.07243 12.749 8.20136C12.5896 8.3303 12.5 8.50516 12.5 8.6875V16.25C12.5 17.9544 13.2827 19.598 14.6962 20.8619C16.1097 22.1259 18.0534 22.9202 20.15 23.0906V28.625H16.75C16.5246 28.625 16.3084 28.6974 16.149 28.8264C15.9896 28.9553 15.9 29.1302 15.9 29.3125C15.9 29.4948 15.9896 29.6697 16.149 29.7986C16.3084 29.9276 16.5246 30 16.75 30H25.25C25.4754 30 25.6916 29.9276 25.851 29.7986C26.0104 29.6697 26.1 29.4948 26.1 29.3125C26.1 29.1302 26.0104 28.9553 25.851 28.8264C25.6916 28.6974 25.4754 28.625 25.25 28.625H21.85V23.0906C23.9466 22.9202 25.8903 22.1259 27.3038 20.8619C28.7173 19.598 29.5 17.9544 29.5 16.25V8.6875C29.5 8.50516 29.4104 8.3303 29.251 8.20136C29.0916 8.07243 28.8754 8 28.65 8H13.35ZM14.2 12.8125V9.375H27.8V12.8125H14.2ZM26.8684 16.3531C26.6652 17.3403 26.0866 18.2518 25.213 18.9606C24.3395 19.6693 23.2144 20.1402 21.9945 20.3076C21.8844 20.3227 21.7718 20.3201 21.663 20.3C21.5542 20.2798 21.4513 20.2425 21.3603 20.1903C21.2693 20.138 21.1919 20.0717 21.1326 19.9952C21.0732 19.9188 21.0331 19.8336 21.0144 19.7446C20.9958 19.6555 20.999 19.5644 21.0239 19.4764C21.0488 19.3884 21.0949 19.3052 21.1595 19.2316C21.2242 19.158 21.3061 19.0954 21.4007 19.0474C21.4952 18.9994 21.6005 18.967 21.7106 18.9519C22.5819 18.8324 23.3855 18.4961 24.0096 17.9899C24.6336 17.4837 25.047 16.8327 25.1922 16.1276C25.235 15.9523 25.3606 15.7973 25.5423 15.6955C25.724 15.5938 25.9476 15.5533 26.1656 15.5826C26.3836 15.612 26.5789 15.7088 26.7101 15.8526C26.8413 15.9965 26.8981 16.176 26.8684 16.3531Z" fill="#419DCE"/>
</g>
<defs>
<filter id="filter0_d_686_11528" x="0" y="0" width="46" height="46" filterUnits="userSpaceOnUse" color-interpolation-filters="sRGB">
<feFlood flood-opacity="0" result="BackgroundImageFix"/>
<feColorMatrix in="SourceAlpha" type="matrix" values="0 0 0 0 0 0 0 0 0 0 0 0 0 0 0 0 0 0 127 0" result="hardAlpha"/>
<feOffset dx="2" dy="4"/>
<feGaussianBlur stdDeviation="2"/>
<feComposite in2="hardAlpha" operator="out"/>
<feColorMatrix type="matrix" values="0 0 0 0 0 0 0 0 0 0 0 0 0 0 0 0 0 0 0.25 0"/>
<feBlend mode="normal" in2="BackgroundImageFix" result="effect1_dropShadow_686_11528"/>
<feBlend mode="normal" in="SourceGraphic" in2="effect1_dropShadow_686_11528" result="shape"/>
</filter>
</defs>
</svg>
