<svg width="46" height="46" viewBox="0 0 46 46" fill="none" xmlns="http://www.w3.org/2000/svg">
<g filter="url(#filter0_d_686_11536)">
<rect x="2" width="38" height="38" rx="15" fill="#F1F1F1" shape-rendering="crispEdges"/>
<path fill-rule="evenodd" clip-rule="evenodd" d="M30 24.3184C29.9987 24.3724 29.9939 24.4264 29.9856 24.4797C30.0073 24.6022 30.004 24.7284 29.976 24.8493C29.948 24.9703 29.896 25.0829 29.8236 25.1792C29.7513 25.2755 29.6604 25.353 29.5575 25.4063C29.4547 25.4595 29.3423 25.4871 29.2286 25.4872H14.8286C14.6597 25.4872 14.4925 25.5237 14.3365 25.5945C14.1806 25.6654 14.0388 25.7693 13.9194 25.9002C13.8 26.0312 13.7053 26.1867 13.6407 26.3578C13.5761 26.5289 13.5429 26.7122 13.5429 26.8974C13.5429 27.0826 13.5761 27.266 13.6407 27.4371C13.7053 27.6082 13.8 27.7637 13.9194 27.8946C14.0388 28.0256 14.1806 28.1295 14.3365 28.2003C14.4925 28.2712 14.6597 28.3077 14.8286 28.3077H29.2286C29.4332 28.3077 29.6294 28.3968 29.7741 28.5555C29.9187 28.7142 30 28.9294 30 29.1538C30 29.3783 29.9187 29.5935 29.7741 29.7522C29.6294 29.9109 29.4332 30 29.2286 30H14.8286C14.0784 30 13.3589 29.6731 12.8285 29.0913C12.298 28.5094 12 27.7203 12 26.8974V11.1026C12 10.2797 12.298 9.49056 12.8285 8.90872C13.3589 8.32688 14.0784 8 14.8286 8H28.6114C29.3787 8 30 8.68144 30 9.52308V24.3184ZM17.9143 12.5128C17.7097 12.5128 17.5135 12.602 17.3688 12.7607C17.2241 12.9193 17.1429 13.1346 17.1429 13.359C17.1429 13.5834 17.2241 13.7986 17.3688 13.9573C17.5135 14.116 17.7097 14.2051 17.9143 14.2051H24.0857C24.2903 14.2051 24.4865 14.116 24.6312 13.9573C24.7759 13.7986 24.8571 13.5834 24.8571 13.359C24.8571 13.1346 24.7759 12.9193 24.6312 12.7607C24.4865 12.602 24.2903 12.5128 24.0857 12.5128H17.9143Z" fill="#333333"/>
</g>
<defs>
<filter id="filter0_d_686_11536" x="0" y="0" width="46" height="46" filterUnits="userSpaceOnUse" color-interpolation-filters="sRGB">
<feFlood flood-opacity="0" result="BackgroundImageFix"/>
<feColorMatrix in="SourceAlpha" type="matrix" values="0 0 0 0 0 0 0 0 0 0 0 0 0 0 0 0 0 0 127 0" result="hardAlpha"/>
<feOffset dx="2" dy="4"/>
<feGaussianBlur stdDeviation="2"/>
<feComposite in2="hardAlpha" operator="out"/>
<feColorMatrix type="matrix" values="0 0 0 0 0 0 0 0 0 0 0 0 0 0 0 0 0 0 0.25 0"/>
<feBlend mode="normal" in2="BackgroundImageFix" result="effect1_dropShadow_686_11536"/>
<feBlend mode="normal" in="SourceGraphic" in2="effect1_dropShadow_686_11536" result="shape"/>
</filter>
</defs>
</svg>
