<svg width="46" height="46" viewBox="0 0 46 46" fill="none" xmlns="http://www.w3.org/2000/svg">
<g filter="url(#filter0_d_686_11495)">
<path d="M2 17C2 8.71573 8.71573 2 17 2H25C33.2843 2 40 8.71573 40 17V25C40 33.2843 33.2843 40 25 40H17C8.71573 40 2 33.2843 2 25V17Z" fill="#E9F8EF"/>
<path d="M17.5979 11.505C17.5476 11.3101 17.4292 11.1396 17.2641 11.0243C17.0991 10.909 16.8982 10.8566 16.6979 10.8764C16.4976 10.8962 16.3109 10.9871 16.1716 11.1325C16.0324 11.2778 15.9497 11.4682 15.9386 11.6693C13.8911 12.3386 12.6187 13.3759 11.8616 14.5819C11.0651 15.8486 10.9064 17.1964 10.8794 18.2336L10.8772 18.3383L10.3068 19.0504C10.0884 19.3233 9.92889 19.6386 9.83834 19.9762C9.74779 20.3139 9.72816 20.6666 9.78069 21.0122C9.83322 21.3578 9.95677 21.6888 10.1435 21.9843C10.3303 22.2798 10.5763 22.5334 10.8659 22.7291L21.0663 29.6265C22.5086 30.6018 24.2099 31.1229 25.9511 31.1227H28.4351C28.9805 31.1228 29.5196 31.0059 30.016 30.7799C30.5124 30.554 30.9547 30.2243 31.3129 29.8129C31.6711 29.4016 31.937 28.9183 32.0926 28.3956C32.2482 27.8728 32.29 27.3228 32.2151 26.7825C31.9473 24.915 30.3329 23.6213 28.8941 22.9271C28.4272 22.7021 28.0413 22.4096 27.7848 22.0316L24.8789 17.0321C25.0807 16.9756 25.2542 16.8461 25.3657 16.6688C25.4772 16.4915 25.5188 16.279 25.4823 16.0727C25.4458 15.8664 25.3339 15.681 25.1683 15.5527C25.0027 15.4244 24.7953 15.3622 24.5864 15.3784C24.2144 15.4069 23.8454 15.4136 23.4794 15.3986C20.8244 15.2884 18.5688 14.0486 17.7712 12.0383C17.7024 11.8643 17.6445 11.6862 17.5979 11.505ZM14.6921 14.0925L16.4774 17.1806C16.5882 17.3726 16.66 17.5845 16.6889 17.8043C16.7177 18.024 16.703 18.2473 16.6455 18.4614C16.5881 18.6754 16.489 18.8761 16.354 19.0518C16.219 19.2276 16.0507 19.375 15.8587 19.4858L15.4256 19.7355L12.5906 17.823C12.6491 17.0389 12.8234 16.2244 13.2914 15.4785C13.5907 15.0015 14.0317 14.5223 14.6943 14.0925M16.9916 20.7908L20.1337 18.9761C20.3257 18.8654 20.5376 18.7935 20.7573 18.7647C20.9771 18.7358 21.2003 18.7506 21.4144 18.808C21.6285 18.8655 21.8291 18.9645 22.0049 19.0996C22.1806 19.2346 22.3281 19.4029 22.4388 19.5949L23.0283 20.6153C23.1391 20.8072 23.2109 21.0191 23.2397 21.2389C23.2686 21.4586 23.2539 21.6819 23.1964 21.896C23.1389 22.11 23.0399 22.3107 22.9049 22.4864C22.7699 22.6622 22.6016 22.8097 22.4096 22.9204L21.1912 23.6246L16.9916 20.7908ZM25.9173 27.7466H30.5208C30.4203 28.2246 30.1583 28.6533 29.7789 28.9609C29.3994 29.2684 28.9257 29.4359 28.4373 29.4352H25.9533C24.5495 29.4354 23.1777 29.0154 22.0147 28.2293L11.8132 21.3308C11.7166 21.2655 11.6346 21.181 11.5723 21.0825C11.51 20.9841 11.4688 20.8737 11.4512 20.7585C11.4337 20.6433 11.4402 20.5257 11.4703 20.4132C11.5005 20.3006 11.5536 20.1955 11.6264 20.1045L12.0933 19.5218L22.9293 26.832C23.8119 27.4278 24.8524 27.7463 25.9173 27.7466Z" fill="#498C6D"/>
</g>
<defs>
<filter id="filter0_d_686_11495" x="0" y="0" width="46" height="46" filterUnits="userSpaceOnUse" color-interpolation-filters="sRGB">
<feFlood flood-opacity="0" result="BackgroundImageFix"/>
<feColorMatrix in="SourceAlpha" type="matrix" values="0 0 0 0 0 0 0 0 0 0 0 0 0 0 0 0 0 0 127 0" result="hardAlpha"/>
<feOffset dx="2" dy="2"/>
<feGaussianBlur stdDeviation="2"/>
<feComposite in2="hardAlpha" operator="out"/>
<feColorMatrix type="matrix" values="0 0 0 0 0 0 0 0 0 0 0 0 0 0 0 0 0 0 0.25 0"/>
<feBlend mode="normal" in2="BackgroundImageFix" result="effect1_dropShadow_686_11495"/>
<feBlend mode="normal" in="SourceGraphic" in2="effect1_dropShadow_686_11495" result="shape"/>
</filter>
</defs>
</svg>
