<svg width="46" height="46" viewBox="0 0 46 46" fill="none" xmlns="http://www.w3.org/2000/svg">
<g filter="url(#filter0_d_686_11513)">
<rect x="2" width="38" height="38" rx="15" fill="#F3F0FF" shape-rendering="crispEdges"/>
<path d="M11 28H29V26H11M29 15H27V12H29M29 10H13V20C13 21.0609 13.4214 22.0783 14.1716 22.8284C14.9217 23.5786 15.9391 24 17 24H23C24.0609 24 25.0783 23.5786 25.8284 22.8284C26.5786 22.0783 27 21.0609 27 20V17H29C29.5304 17 30.0391 16.7893 30.4142 16.4142C30.7893 16.0391 31 15.5304 31 15V12C31 11.4696 30.7893 10.9609 30.4142 10.5858C30.0391 10.2107 29.5304 10 29 10Z" fill="#7B61FF"/>
</g>
<defs>
<filter id="filter0_d_686_11513" x="0" y="0" width="46" height="46" filterUnits="userSpaceOnUse" color-interpolation-filters="sRGB">
<feFlood flood-opacity="0" result="BackgroundImageFix"/>
<feColorMatrix in="SourceAlpha" type="matrix" values="0 0 0 0 0 0 0 0 0 0 0 0 0 0 0 0 0 0 127 0" result="hardAlpha"/>
<feOffset dx="2" dy="4"/>
<feGaussianBlur stdDeviation="2"/>
<feComposite in2="hardAlpha" operator="out"/>
<feColorMatrix type="matrix" values="0 0 0 0 0 0 0 0 0 0 0 0 0 0 0 0 0 0 0.25 0"/>
<feBlend mode="normal" in2="BackgroundImageFix" result="effect1_dropShadow_686_11513"/>
<feBlend mode="normal" in="SourceGraphic" in2="effect1_dropShadow_686_11513" result="shape"/>
</filter>
</defs>
</svg>
