<svg width="46" height="46" viewBox="0 0 46 46" fill="none" xmlns="http://www.w3.org/2000/svg">
<g filter="url(#filter0_d_686_11499)">
<path d="M2 15C2 6.71573 8.71573 0 17 0H25C33.2843 0 40 6.71573 40 15V23C40 31.2843 33.2843 38 25 38H17C8.71573 38 2 31.2843 2 23V15Z" fill="#FDF3F7"/>
<path d="M19.2318 8.08486C19.3235 8.13641 19.4039 8.21035 19.4673 8.30137C19.5308 8.39239 19.5757 8.49823 19.5988 8.61129C19.6237 8.73543 20.3077 12.0574 20.3077 14.2857C20.3077 15.7786 19.6957 17.1096 18.7431 17.9723C18.3969 18.2866 18.2308 18.6291 18.2308 18.9151V19.6789C18.2308 19.7155 18.2326 19.7501 18.2363 19.7826C18.2834 20.1723 18.4537 21.6196 18.6129 23.1203C18.7694 24.5927 18.9231 26.1987 18.9231 26.8571C18.9231 27.6907 18.6313 28.4901 18.112 29.0795C17.5927 29.6689 16.8883 30 16.1538 30C15.4194 30 14.715 29.6689 14.1957 29.0795C13.6764 28.4901 13.3846 27.6907 13.3846 26.8571C13.3846 26.1971 13.5383 24.5943 13.6948 23.1203C13.854 21.6196 14.0243 20.1723 14.0714 19.7826L14.0769 19.6789V18.9151C14.0769 18.6291 13.9108 18.2866 13.5646 17.9723C13.0765 17.5307 12.6824 16.9699 12.4115 16.3317C12.1406 15.6935 12 14.9941 12 14.2857C12 12.0653 12.6785 8.76057 12.7089 8.61286C12.7449 8.43818 12.832 8.28249 12.956 8.1712C13.0799 8.0599 13.2335 7.99955 13.3915 8C13.7792 8 14.0935 8.35672 14.0935 8.79672V13.5079C14.0881 13.614 14.1018 13.7202 14.134 13.8201C14.1661 13.9199 14.2159 14.0112 14.2804 14.0884C14.3448 14.1655 14.4225 14.2269 14.5087 14.2686C14.5948 14.3103 14.6876 14.3316 14.7812 14.331C14.8749 14.3305 14.9675 14.3082 15.0532 14.2655C15.139 14.2227 15.2161 14.1605 15.2799 14.0826C15.3436 14.0048 15.3926 13.9129 15.4239 13.8127C15.4551 13.7125 15.4679 13.6061 15.4615 13.5V8.78572C15.4615 8.57733 15.5345 8.37748 15.6643 8.23013C15.7941 8.08278 15.9702 8 16.1538 8C16.3375 8 16.5135 8.08278 16.6434 8.23013C16.7732 8.37748 16.8462 8.57733 16.8462 8.78572V13.5409C16.85 13.7472 16.9259 13.9433 17.0572 14.0861C17.1884 14.2288 17.3643 14.3066 17.5461 14.3022C17.7279 14.2978 17.9007 14.2117 18.0265 14.0627C18.1523 13.9137 18.2208 13.7142 18.2169 13.5079V8.79357C18.2169 8.35515 18.5298 8 18.9175 8C18.948 8 19.0837 8 19.2318 8.08486ZM22.3846 15.0714C22.3846 13.196 23.0411 11.3973 24.2096 10.0712C25.3781 8.74503 26.9629 8 28.6154 8C28.799 8 28.9751 8.08278 29.1049 8.23013C29.2348 8.37748 29.3077 8.57733 29.3077 8.78572V18.1719L29.334 18.45C29.4441 19.6228 29.5498 20.7962 29.6511 21.97C29.8214 23.9437 30 26.1563 30 26.8571C30 27.6907 29.7082 28.4901 29.1889 29.0795C28.6696 29.6689 27.9652 30 27.2308 30C26.4963 30 25.792 29.6689 25.2726 29.0795C24.7533 28.4901 24.4615 27.6907 24.4615 26.8571C24.4615 26.1563 24.6402 23.9437 24.8105 21.97C24.8977 20.969 24.9849 20.0104 25.05 19.3001L25.0777 19H23.7692C23.402 19 23.0498 18.8344 22.7902 18.5397C22.5305 18.245 22.3846 17.8453 22.3846 17.4286V15.0714Z" fill="#E94E77"/>
</g>
<defs>
<filter id="filter0_d_686_11499" x="0" y="0" width="46" height="46" filterUnits="userSpaceOnUse" color-interpolation-filters="sRGB">
<feFlood flood-opacity="0" result="BackgroundImageFix"/>
<feColorMatrix in="SourceAlpha" type="matrix" values="0 0 0 0 0 0 0 0 0 0 0 0 0 0 0 0 0 0 127 0" result="hardAlpha"/>
<feOffset dx="2" dy="4"/>
<feGaussianBlur stdDeviation="2"/>
<feComposite in2="hardAlpha" operator="out"/>
<feColorMatrix type="matrix" values="0 0 0 0 0 0 0 0 0 0 0 0 0 0 0 0 0 0 0.25 0"/>
<feBlend mode="normal" in2="BackgroundImageFix" result="effect1_dropShadow_686_11499"/>
<feBlend mode="normal" in="SourceGraphic" in2="effect1_dropShadow_686_11499" result="shape"/>
</filter>
</defs>
</svg>
