<svg width="36" height="37" viewBox="0 0 36 37" fill="none" xmlns="http://www.w3.org/2000/svg">
<g filter="url(#filter0_d_1091_2175)">
<path d="M30.0984 3.57958L30.8359 4.31708C31.8522 5.33458 31.6984 7.13833 30.4897 8.34583L15.2809 23.5546L10.3534 25.3571C9.73469 25.5846 9.13219 25.2896 9.00969 24.7008C8.96842 24.4873 8.98791 24.2664 9.06594 24.0633L10.9034 19.0933L26.0697 3.92583C27.2784 2.71833 29.0822 2.56208 30.0984 3.57958ZM14.6172 5.09208C14.7813 5.09208 14.9439 5.12441 15.0955 5.18723C15.2472 5.25005 15.385 5.34213 15.5011 5.4582C15.6171 5.57427 15.7092 5.71207 15.772 5.86373C15.8349 6.01538 15.8672 6.17793 15.8672 6.34208C15.8672 6.50623 15.8349 6.66878 15.772 6.82044C15.7092 6.97209 15.6171 7.10989 15.5011 7.22597C15.385 7.34204 15.2472 7.43411 15.0955 7.49693C14.9439 7.55975 14.7813 7.59208 14.6172 7.59208H9.61719C8.95415 7.59208 8.31826 7.85547 7.84942 8.32432C7.38058 8.79316 7.11719 9.42904 7.11719 10.0921V25.0921C7.11719 25.7551 7.38058 26.391 7.84942 26.8598C8.31826 27.3287 8.95415 27.5921 9.61719 27.5921H24.6172C25.2802 27.5921 25.9161 27.3287 26.385 26.8598C26.8538 26.391 27.1172 25.7551 27.1172 25.0921V20.0921C27.1172 19.7606 27.2489 19.4426 27.4833 19.2082C27.7177 18.9738 28.0357 18.8421 28.3672 18.8421C28.6987 18.8421 29.0167 18.9738 29.2511 19.2082C29.4855 19.4426 29.6172 19.7606 29.6172 20.0921V25.0921C29.6172 26.4182 29.0904 27.6899 28.1527 28.6276C27.215 29.5653 25.9433 30.0921 24.6172 30.0921H9.61719C8.2911 30.0921 7.01934 29.5653 6.08165 28.6276C5.14397 27.6899 4.61719 26.4182 4.61719 25.0921V10.0921C4.61719 8.766 5.14397 7.49423 6.08165 6.55655C7.01934 5.61887 8.2911 5.09208 9.61719 5.09208H14.6172Z" fill="#FFAC33"/>
</g>
<defs>
<filter id="filter0_d_1091_2175" x="0.617188" y="0.907715" width="34.8906" height="35.1843" filterUnits="userSpaceOnUse" color-interpolation-filters="sRGB">
<feFlood flood-opacity="0" result="BackgroundImageFix"/>
<feColorMatrix in="SourceAlpha" type="matrix" values="0 0 0 0 0 0 0 0 0 0 0 0 0 0 0 0 0 0 127 0" result="hardAlpha"/>
<feOffset dy="2"/>
<feGaussianBlur stdDeviation="2"/>
<feComposite in2="hardAlpha" operator="out"/>
<feColorMatrix type="matrix" values="0 0 0 0 1 0 0 0 0 0.67451 0 0 0 0 0.2 0 0 0 0.5 0"/>
<feBlend mode="normal" in2="BackgroundImageFix" result="effect1_dropShadow_1091_2175"/>
<feBlend mode="normal" in="SourceGraphic" in2="effect1_dropShadow_1091_2175" result="shape"/>
</filter>
</defs>
</svg>
