<svg width="30" height="30" viewBox="0 0 30 30" fill="none" xmlns="http://www.w3.org/2000/svg">
<path d="M24.3285 1.57342C25.308 2.42669 25.983 3.80492 26.259 5.24814L26.3565 5.29147L29.424 6.86802C29.5953 6.95566 29.7406 7.09586 29.8426 7.27213C29.9447 7.44839 29.9993 7.65337 30 7.86295V28.4731C29.9989 28.6443 29.9621 28.8129 29.8925 28.9656C29.8229 29.1184 29.7224 29.2511 29.5989 29.3535C29.4754 29.4559 29.3322 29.525 29.1806 29.5556C29.029 29.5862 28.873 29.5773 28.725 29.5297L20.2215 26.8632L10.1115 29.9596C9.92913 30.0156 9.73624 30.0133 9.555 29.953L0.711 27.0282C0.506581 26.9615 0.326985 26.8233 0.198893 26.6341C0.0708015 26.445 0.00104949 26.215 0 25.9783L0 4.99816C0 4.26488 0.642 3.73826 1.2825 3.94491L9.8355 6.71303L14.1825 5.23481C14.2425 5.21481 14.3035 5.20092 14.3655 5.19315C14.5335 4.0999 15.003 3.04998 15.7905 2.02672C16.725 0.810144 18.3645 0.0968642 19.962 0.0118706C21.6195 -0.0764561 22.8855 0.316848 24.327 1.57175M1.9995 6.46972V25.16L9.3045 27.5748V8.83121L1.9995 6.46972ZM14.313 7.49297L11.304 8.51456V27.3115L18.9015 24.9883V19.4971C18.9015 18.8904 19.35 18.3988 19.902 18.3988C20.454 18.3988 20.901 18.8905 20.901 19.4987V24.7933L28.0005 27.0182V8.56123L26.3205 7.69463C26.2925 7.87795 26.256 8.05738 26.211 8.23292C25.886 9.51129 25.3387 10.7065 24.6 11.751L20.8845 16.9056C20.7867 17.0411 20.6617 17.1494 20.5196 17.2219C20.3775 17.2943 20.2221 17.3289 20.0658 17.323C19.9096 17.317 19.7567 17.2706 19.6194 17.1874C19.4821 17.1042 19.3642 16.9866 19.275 16.8439L15.8025 11.256C15.2285 10.3683 14.828 9.5706 14.601 8.86287C14.4583 8.41994 14.3616 7.96032 14.313 7.49297ZM20.058 2.20837C18.969 2.2667 17.85 2.75333 17.3175 3.44495C16.677 4.27822 16.362 5.05816 16.299 5.8481C16.224 6.79969 16.275 7.47131 16.488 8.13626C16.6455 8.62789 16.959 9.25118 17.4435 10.0028L20.16 14.3725L23.025 10.3978C23.6034 9.57735 24.0319 8.63929 24.2865 7.6363C24.6465 6.2364 24.1035 4.17989 23.0865 3.29662C22.044 2.38836 21.2565 2.14338 20.0595 2.20837M20.2665 3.36995C21.9225 3.36995 23.2665 4.84484 23.2665 6.6647C23.2613 7.54341 22.9425 8.38392 22.38 9.00166C21.8176 9.61941 21.0574 9.96389 20.2665 9.95946C18.6105 9.95946 17.2665 8.48457 17.2665 6.6647C17.2665 4.84484 18.6105 3.36995 20.2665 3.36995ZM20.2665 5.56645C20.1359 5.56558 20.0064 5.59329 19.8855 5.648C19.7645 5.70272 19.6544 5.78337 19.5615 5.88536C19.4686 5.98734 19.3947 6.10865 19.344 6.24237C19.2933 6.3761 19.2668 6.5196 19.266 6.6647C19.266 7.27133 19.7145 7.76295 20.2665 7.76295C20.3971 7.76361 20.5265 7.73568 20.6474 7.68076C20.7683 7.62584 20.8783 7.54501 20.971 7.44287C21.0638 7.34073 21.1376 7.2193 21.1881 7.08549C21.2386 6.95169 21.2649 6.80814 21.2655 6.66304C21.2635 6.37057 21.1572 6.09091 20.97 5.88536C20.7827 5.6798 20.5297 5.56512 20.2665 5.56645Z" fill="#1E1E1E"/>
</svg>
