<svg width="39" height="39" viewBox="0 0 39 39" fill="none" xmlns="http://www.w3.org/2000/svg">
<g filter="url(#filter0_d_1091_2147)">
<path d="M24.304 27.6797C24.0268 27.5428 23.7018 27.5418 23.4237 27.677L14.6958 31.9223C14.4099 32.0614 14.0749 32.0562 13.7934 31.9084L4.59749 27.0781C4.26853 26.9053 4.0625 26.5644 4.0625 26.1928V11.2983C4.0625 10.557 4.84076 10.0734 5.50537 10.4017L13.821 14.5092C14.0983 14.6461 14.4232 14.6471 14.7013 14.5118L23.4292 10.2666C23.7151 10.1275 24.0501 10.1327 24.3316 10.2805L33.5275 15.1106C33.8565 15.2834 34.0625 15.6244 34.0625 15.996V30.8906C34.0625 31.6319 33.2842 32.1155 32.6196 31.7872L24.304 27.6797ZM22.8125 14.2949C22.8125 13.5554 22.0377 13.0718 21.3733 13.3965L15.8733 16.085C15.5301 16.2527 15.3125 16.6014 15.3125 16.9834V27.8939C15.3125 28.6334 16.0873 29.117 16.7516 28.7923L22.2516 26.1039C22.5949 25.9362 22.8125 25.5875 22.8125 25.2055V14.2949Z" fill="#FFAC33"/>
<path d="M19.0624 2.5C17.7364 2.5 16.4647 3.04904 15.5269 4.02629C14.5893 5.00344 14.0625 6.32892 14.0625 7.71093C14.0625 12.4007 19.0624 16.0483 19.0624 16.0483C19.0624 16.0483 24.0625 12.4007 24.0625 7.71093C24.0625 6.32892 23.5357 5.00344 22.5981 4.02629C21.6603 3.04904 20.3886 2.5 19.0624 2.5ZM19.0624 9.79528C18.6669 9.79528 18.2802 9.67299 17.9513 9.44401C17.6224 9.21494 17.3661 8.88948 17.2148 8.50857C17.0633 8.12766 17.0237 7.70858 17.1009 7.30431C17.1781 6.89994 17.3686 6.52855 17.6483 6.23705C17.928 5.94556 18.2843 5.747 18.6723 5.66662C19.0602 5.58614 19.4624 5.62746 19.8278 5.78518C20.1934 5.94301 20.5056 6.21016 20.7254 6.55289C20.9452 6.89572 21.0625 7.29871 21.0625 7.71093C21.0625 8.2637 20.8518 8.79389 20.4767 9.18481C20.1016 9.57573 19.593 9.79528 19.0624 9.79528Z" fill="#FFD9A2"/>
<path d="M19.0625 5.58283C18.613 5.58283 18.1736 5.7335 17.7998 6.01579C17.4261 6.29808 17.1348 6.69921 16.9628 7.16866C16.7908 7.63811 16.7457 8.15469 16.8334 8.65298C16.9211 9.15136 17.1376 9.6091 17.4554 9.96833C17.7733 10.3277 18.1782 10.5723 18.6191 10.6714C19.06 10.7706 19.5169 10.7197 19.9322 10.5253C20.3475 10.3308 20.7025 10.0015 20.9522 9.57901C21.2019 9.15659 21.3352 8.65985 21.3352 8.15179C21.3352 7.4705 21.0958 6.81699 20.6696 6.33524C20.2433 5.8535 19.6653 5.58283 19.0625 5.58283ZM19.0625 9.6932C18.7928 9.6932 18.5292 9.60281 18.3049 9.43346C18.0807 9.26401 17.9059 9.02333 17.8027 8.74162C17.6995 8.46001 17.6724 8.15004 17.7251 7.85111C17.7777 7.55208 17.9076 7.27743 18.0983 7.06182C18.289 6.84631 18.5319 6.6995 18.7965 6.63999C19.061 6.58057 19.3352 6.61105 19.5843 6.72776C19.8335 6.84437 20.0465 7.04198 20.1963 7.29543C20.3462 7.54888 20.4261 7.84695 20.4261 8.15179C20.4261 8.56056 20.2825 8.95269 20.0267 9.24175C19.771 9.53081 19.4242 9.6932 19.0625 9.6932ZM19.0625 2.5C17.7369 2.50174 16.466 3.09767 15.5286 4.15725C14.5913 5.21683 14.064 6.65334 14.0625 8.15179C14.0625 10.1685 14.8869 12.3059 16.4489 14.3334C17.1507 15.2497 17.9406 16.0747 18.804 16.7933C18.8804 16.8538 18.9715 16.8862 19.0648 16.8862C19.1581 16.8862 19.2491 16.8538 19.3256 16.7933C20.1874 16.0744 20.9757 15.2494 21.6761 14.3334C23.2358 12.3059 24.0625 10.1685 24.0625 8.15179C24.061 6.65334 23.5337 5.21683 22.5964 4.15725C21.659 3.09767 20.3881 2.50174 19.0625 2.5ZM19.0625 15.7303C18.1233 14.8954 14.9716 11.8287 14.9716 8.15179C14.9716 6.92537 15.4026 5.74918 16.1698 4.88199C16.937 4.0148 17.9775 3.52764 19.0625 3.52764C20.1475 3.52764 21.188 4.0148 21.9552 4.88199C22.7224 5.74918 23.1534 6.92537 23.1534 8.15179C23.1534 11.8274 20.0017 14.8954 19.0625 15.7303Z" fill="#FFAC33"/>
</g>
<defs>
<filter id="filter0_d_1091_2147" x="0.0625" y="0.5" width="38" height="37.5229" filterUnits="userSpaceOnUse" color-interpolation-filters="sRGB">
<feFlood flood-opacity="0" result="BackgroundImageFix"/>
<feColorMatrix in="SourceAlpha" type="matrix" values="0 0 0 0 0 0 0 0 0 0 0 0 0 0 0 0 0 0 127 0" result="hardAlpha"/>
<feOffset dy="2"/>
<feGaussianBlur stdDeviation="2"/>
<feComposite in2="hardAlpha" operator="out"/>
<feColorMatrix type="matrix" values="0 0 0 0 1 0 0 0 0 0.67451 0 0 0 0 0.2 0 0 0 0.5 0"/>
<feBlend mode="normal" in2="BackgroundImageFix" result="effect1_dropShadow_1091_2147"/>
<feBlend mode="normal" in="SourceGraphic" in2="effect1_dropShadow_1091_2147" result="shape"/>
</filter>
</defs>
</svg>
