<svg width="30" height="30" viewBox="0 0 30 30" fill="none" xmlns="http://www.w3.org/2000/svg">
<path d="M27.2361 1.84997L27.9736 2.58747C28.9899 3.60497 28.8361 5.40872 27.6274 6.61622L12.4186 21.825L7.49113 23.6275C6.87238 23.855 6.26988 23.56 6.14738 22.9712C6.10612 22.7576 6.12561 22.5368 6.20363 22.3337L8.04113 17.3637L23.2074 2.19622C24.4161 0.98872 26.2199 0.832471 27.2361 1.84997ZM11.7549 3.36247C11.919 3.36247 12.0816 3.3948 12.2332 3.45762C12.3849 3.52044 12.5227 3.61251 12.6388 3.72859C12.7548 3.84466 12.8469 3.98246 12.9097 4.13412C12.9726 4.28577 13.0049 4.44832 13.0049 4.61247C13.0049 4.77662 12.9726 4.93917 12.9097 5.09082C12.8469 5.24248 12.7548 5.38028 12.6388 5.49635C12.5227 5.61243 12.3849 5.7045 12.2332 5.76732C12.0816 5.83014 11.919 5.86247 11.7549 5.86247H6.75488C6.09184 5.86247 5.45596 6.12586 4.98712 6.5947C4.51827 7.06354 4.25488 7.69943 4.25488 8.36247V23.3625C4.25488 24.0255 4.51827 24.6614 4.98712 25.1302C5.45596 25.5991 6.09184 25.8625 6.75488 25.8625H21.7549C22.4179 25.8625 23.0538 25.5991 23.5227 25.1302C23.9915 24.6614 24.2549 24.0255 24.2549 23.3625V18.3625C24.2549 18.031 24.3866 17.713 24.621 17.4786C24.8554 17.2442 25.1734 17.1125 25.5049 17.1125C25.8364 17.1125 26.1543 17.2442 26.3888 17.4786C26.6232 17.713 26.7549 18.031 26.7549 18.3625V23.3625C26.7549 24.6886 26.2281 25.9603 25.2904 26.898C24.3527 27.8357 23.081 28.3625 21.7549 28.3625H6.75488C5.4288 28.3625 4.15703 27.8357 3.21935 26.898C2.28167 25.9603 1.75488 24.6886 1.75488 23.3625V8.36247C1.75488 7.03639 2.28167 5.76462 3.21935 4.82694C4.15703 3.88925 5.4288 3.36247 6.75488 3.36247H11.7549Z" fill="#1E1E1E"/>
</svg>
