<svg width="38" height="35" viewBox="0 0 38 35" fill="none" xmlns="http://www.w3.org/2000/svg">
<g filter="url(#filter0_d_1091_2098)">
<path d="M19.3258 6.43422C19.2385 6.35077 19.1225 6.3042 19.0018 6.3042C18.881 6.3042 18.765 6.35077 18.6777 6.43422L7.89063 16.7391C7.84481 16.7829 7.80837 16.8356 7.78349 16.8939C7.75862 16.9522 7.74583 17.015 7.7459 17.0784L7.74414 26.7498C7.74414 27.2471 7.94168 27.724 8.29332 28.0757C8.64495 28.4273 9.12186 28.6248 9.61914 28.6248H15.25C15.4986 28.6248 15.7371 28.5261 15.9129 28.3503C16.0887 28.1744 16.1875 27.936 16.1875 27.6873V19.7186C16.1875 19.5943 16.2369 19.475 16.3248 19.3871C16.4127 19.2992 16.5319 19.2498 16.6563 19.2498H21.3438C21.4681 19.2498 21.5873 19.2992 21.6752 19.3871C21.7631 19.475 21.8125 19.5943 21.8125 19.7186V27.6873C21.8125 27.936 21.9113 28.1744 22.0871 28.3503C22.2629 28.5261 22.5014 28.6248 22.75 28.6248H28.3785C28.8758 28.6248 29.3527 28.4273 29.7043 28.0757C30.056 27.724 30.2535 27.2471 30.2535 26.7498V17.0784C30.2536 17.015 30.2408 16.9522 30.2159 16.8939C30.191 16.8356 30.1546 16.7829 30.1088 16.7391L19.3258 6.43422Z" fill="#FFAC33"/>
<path d="M32.7643 14.8057L28.3815 10.6127V4.25C28.3815 4.00136 28.2827 3.7629 28.1069 3.58709C27.9311 3.41127 27.6926 3.3125 27.444 3.3125H24.6315C24.3828 3.3125 24.1444 3.41127 23.9686 3.58709C23.7927 3.7629 23.694 4.00136 23.694 4.25V6.125L20.3002 2.88008C19.9826 2.55898 19.5104 2.375 19 2.375C18.4914 2.375 18.0203 2.55898 17.7028 2.88066L5.23987 14.8045C4.87541 15.1561 4.82971 15.7344 5.16135 16.1152C5.24463 16.2114 5.3466 16.2896 5.46106 16.345C5.57551 16.4005 5.70006 16.4321 5.82712 16.4379C5.95417 16.4437 6.08108 16.4236 6.20013 16.3788C6.31917 16.334 6.42785 16.2655 6.51955 16.1773L18.6778 4.55937C18.765 4.47593 18.8811 4.42935 19.0018 4.42935C19.1225 4.42935 19.2386 4.47593 19.3258 4.55937L31.4852 16.1773C31.6643 16.3491 31.9042 16.4429 32.1523 16.438C32.4004 16.4332 32.6365 16.3302 32.8088 16.1516C33.1686 15.7789 33.1387 15.1637 32.7643 14.8057Z" fill="#FFAC33"/>
</g>
<defs>
<filter id="filter0_d_1091_2098" x="0.9375" y="0.375" width="36.125" height="34.2498" filterUnits="userSpaceOnUse" color-interpolation-filters="sRGB">
<feFlood flood-opacity="0" result="BackgroundImageFix"/>
<feColorMatrix in="SourceAlpha" type="matrix" values="0 0 0 0 0 0 0 0 0 0 0 0 0 0 0 0 0 0 127 0" result="hardAlpha"/>
<feOffset dy="2"/>
<feGaussianBlur stdDeviation="2"/>
<feComposite in2="hardAlpha" operator="out"/>
<feColorMatrix type="matrix" values="0 0 0 0 1 0 0 0 0 0.67451 0 0 0 0 0.2 0 0 0 0.5 0"/>
<feBlend mode="normal" in2="BackgroundImageFix" result="effect1_dropShadow_1091_2098"/>
<feBlend mode="normal" in="SourceGraphic" in2="effect1_dropShadow_1091_2098" result="shape"/>
</filter>
</defs>
</svg>
