<svg width="41" height="36" viewBox="0 0 41 36" fill="none" xmlns="http://www.w3.org/2000/svg">
<path d="M20.6651 19.4484L28.8318 26.5943C29.1651 26.8859 29.3251 27.2262 29.3118 27.6151C29.2984 28.004 29.1245 28.3443 28.7901 28.6359C28.4568 28.9033 28.0679 29.0433 27.6234 29.0559C27.179 29.0686 26.7901 28.9286 26.4568 28.6359L15.4568 19.0109C15.2901 18.8651 15.1718 18.7071 15.1018 18.537C15.0318 18.3668 14.9979 18.1846 15.0001 17.9901C15.0023 17.7957 15.0373 17.6134 15.1051 17.4432C15.1729 17.2731 15.2907 17.1151 15.4584 16.9693L26.4584 7.34428C26.764 7.07692 27.1462 6.94324 27.6051 6.94324C28.064 6.94324 28.4595 7.07692 28.7918 7.34428C29.1251 7.63595 29.2918 7.98254 29.2918 8.38407C29.2918 8.7856 29.1251 9.13171 28.7918 9.4224L20.6651 16.5318H39.2901C39.7623 16.5318 40.1584 16.6718 40.4784 16.9518C40.7984 17.2318 40.9579 17.5779 40.9568 17.9901C40.9557 18.4023 40.7957 18.7489 40.4768 19.0299C40.1579 19.3109 39.7623 19.4504 39.2901 19.4484H20.6651Z" fill="#1E1E1E"/>
</svg>
