<svg width="25" height="26" viewBox="0 0 25 26" fill="none" xmlns="http://www.w3.org/2000/svg">
<path d="M7.29168 15.0832C7.84421 15.0832 8.37411 14.8637 8.76482 14.473C9.15552 14.0823 9.37501 13.5524 9.37501 12.9998C9.37501 12.4473 9.15552 11.9174 8.76482 11.5267C8.37411 11.136 7.84421 10.9165 7.29168 10.9165C6.73914 10.9165 6.20924 11.136 5.81854 11.5267C5.42784 11.9174 5.20834 12.4473 5.20834 12.9998C5.20834 13.5524 5.42784 14.0823 5.81854 14.473C6.20924 14.8637 6.73914 15.0832 7.29168 15.0832ZM14.5833 12.9998C14.5833 13.5524 14.3638 14.0823 13.9731 14.473C13.5824 14.8637 13.0525 15.0832 12.5 15.0832C11.9475 15.0832 11.4176 14.8637 11.0269 14.473C10.6362 14.0823 10.4167 13.5524 10.4167 12.9998C10.4167 12.4473 10.6362 11.9174 11.0269 11.5267C11.4176 11.136 11.9475 10.9165 12.5 10.9165C13.0525 10.9165 13.5824 11.136 13.9731 11.5267C14.3638 11.9174 14.5833 12.4473 14.5833 12.9998ZM17.7083 15.0832C18.2609 15.0832 18.7908 14.8637 19.1815 14.473C19.5722 14.0823 19.7917 13.5524 19.7917 12.9998C19.7917 12.4473 19.5722 11.9174 19.1815 11.5267C18.7908 11.136 18.2609 10.9165 17.7083 10.9165C17.1558 10.9165 16.6259 11.136 16.2352 11.5267C15.8445 11.9174 15.625 12.4473 15.625 12.9998C15.625 13.5524 15.8445 14.0823 16.2352 14.473C16.6259 14.8637 17.1558 15.0832 17.7083 15.0832Z" fill="#1E1E1E"/>
<path fill-rule="evenodd" clip-rule="evenodd" d="M25 13C25 19.9031 19.4031 25.5 12.5 25.5C5.59687 25.5 0 19.9031 0 13C0 6.09687 5.59687 0.5 12.5 0.5C19.4031 0.5 25 6.09687 25 13ZM22.9167 13C22.9167 18.7531 18.2531 23.4167 12.5 23.4167C6.74687 23.4167 2.08333 18.7531 2.08333 13C2.08333 7.24687 6.74687 2.58333 12.5 2.58333C18.2531 2.58333 22.9167 7.24687 22.9167 13Z" fill="#1E1E1E"/>
</svg>
