<svg width="26" height="30" viewBox="0 0 26 30" fill="none" xmlns="http://www.w3.org/2000/svg">
<path d="M1.3 0C0.955219 0 0.624559 0.0987722 0.380761 0.274588C0.136964 0.450403 1.02702e-09 0.68886 1.02702e-09 0.9375V11.25C-4.04863e-05 13.5741 1.197 15.8154 3.35889 17.539C5.52077 19.2626 8.49338 20.3457 11.7 20.5781V28.125H6.5C6.15522 28.125 5.82456 28.2238 5.58076 28.3996C5.33696 28.5754 5.2 28.8139 5.2 29.0625C5.2 29.3111 5.33696 29.5496 5.58076 29.7254C5.82456 29.9012 6.15522 30 6.5 30H19.5C19.8448 30 20.1754 29.9012 20.4192 29.7254C20.663 29.5496 20.8 29.3111 20.8 29.0625C20.8 28.8139 20.663 28.5754 20.4192 28.3996C20.1754 28.2238 19.8448 28.125 19.5 28.125H14.3V20.5781C17.5066 20.3457 20.4792 19.2626 22.6411 17.539C24.803 15.8154 26 13.5741 26 11.25V0.9375C26 0.68886 25.863 0.450403 25.6192 0.274588C25.3754 0.0987722 25.0448 0 24.7 0H1.3ZM2.6 6.5625V1.875H23.4V6.5625H2.6ZM21.9752 11.3906C21.6645 12.7368 20.7795 13.9797 19.4435 14.9462C18.1074 15.9127 16.3868 16.5548 14.521 16.7831C14.3527 16.8037 14.1804 16.8001 14.014 16.7727C13.8475 16.7452 13.6902 16.6944 13.551 16.6231C13.4119 16.5518 13.2935 16.4614 13.2028 16.3571C13.112 16.2529 13.0506 16.1367 13.0221 16.0153C12.9936 15.8939 12.9985 15.7697 13.0366 15.6497C13.0747 15.5296 13.1452 15.4162 13.244 15.3158C13.3429 15.2155 13.4682 15.1301 13.6128 15.0647C13.7574 14.9992 13.9185 14.9549 14.0868 14.9344C15.4194 14.7714 16.6485 14.3128 17.6029 13.6226C18.5572 12.9323 19.1895 12.0446 19.4116 11.0831C19.4771 10.844 19.6691 10.6327 19.947 10.4939C20.2249 10.3552 20.5669 10.3 20.9003 10.3399C21.2337 10.3799 21.5324 10.512 21.7331 10.7081C21.9337 10.9043 22.0206 11.1491 21.9752 11.3906Z" fill="currentColor"/>
</svg>
