<svg width="33" height="36" viewBox="0 0 33 36" fill="none" xmlns="http://www.w3.org/2000/svg">
<path d="M12.342 5.69167C12.2804 5.439 12.1357 5.21799 11.934 5.06856C11.7322 4.91914 11.4868 4.85114 11.2419 4.87684C10.9971 4.90255 10.7689 5.02027 10.5987 5.20874C10.4285 5.39721 10.3275 5.64402 10.3138 5.90459C7.81134 6.7723 6.25622 8.11688 5.33084 9.68021C4.35734 11.3223 4.16347 13.0694 4.13047 14.414L4.12772 14.5496L3.43059 15.4727C3.16365 15.8265 2.9687 16.2352 2.85803 16.6729C2.74736 17.1106 2.72337 17.5678 2.78757 18.0158C2.85177 18.4638 3.00277 18.8929 3.23105 19.2759C3.45934 19.659 3.75996 19.9877 4.11397 20.2415L16.5811 29.1825C18.3439 30.4468 20.4233 31.1223 22.5513 31.1221H25.5873C26.254 31.1221 26.9129 30.9706 27.5196 30.6777C28.1264 30.3848 28.6669 29.9574 29.1047 29.4242C29.5425 28.891 29.8675 28.2645 30.0577 27.5868C30.2479 26.9092 30.2989 26.1962 30.2073 25.4958C29.8801 23.075 27.907 21.3979 26.1483 20.4981C25.5777 20.2065 25.1061 19.8273 24.7926 19.3373L21.241 12.8565C21.4875 12.7832 21.6996 12.6154 21.8359 12.3855C21.9722 12.1556 22.023 11.8801 21.9784 11.6127C21.9338 11.3453 21.797 11.105 21.5947 10.9387C21.3923 10.7723 21.1388 10.6918 20.8835 10.7127C20.4288 10.7497 19.9778 10.7584 19.5305 10.739C16.2855 10.596 13.5286 8.98896 12.5537 6.38292C12.4697 6.1574 12.3989 5.92653 12.342 5.69167ZM8.79034 9.04584L10.9725 13.049C11.1078 13.2978 11.1956 13.5725 11.2309 13.8574C11.2661 14.1422 11.2481 14.4317 11.1779 14.7092C11.1077 14.9866 10.9866 15.2467 10.8216 15.4746C10.6566 15.7024 10.4509 15.8936 10.2162 16.0371L9.68684 16.3608L6.22184 13.8817C6.29334 12.8652 6.50647 11.8094 7.07847 10.8425C7.44422 10.2242 7.98322 9.60292 8.79309 9.04584M11.6008 17.7288L15.4412 15.3765C15.6759 15.2329 15.9349 15.1398 16.2034 15.1024C16.472 15.065 16.7449 15.0841 17.0066 15.1586C17.2682 15.233 17.5134 15.3615 17.7282 15.5365C17.9431 15.7115 18.1233 15.9297 18.2586 16.1785L18.9791 17.5013C19.1145 17.7501 19.2023 18.0248 19.2375 18.3097C19.2728 18.5945 19.2548 18.884 19.1845 19.1615C19.1143 19.4389 18.9932 19.699 18.8282 19.9269C18.6632 20.1547 18.4575 20.3459 18.2228 20.4894L16.7337 21.4023L11.6008 17.7288ZM22.5101 26.7456H28.1366C28.0137 27.3652 27.6935 27.921 27.2298 28.3196C26.766 28.7183 26.187 28.9354 25.5901 28.9346H22.5541C20.8383 28.9348 19.1617 28.3904 17.7402 27.3713L5.27172 18.4288C5.15368 18.3442 5.05343 18.2347 4.97729 18.107C4.90115 17.9793 4.85078 17.8363 4.82933 17.687C4.80789 17.5376 4.81584 17.3852 4.8527 17.2393C4.88955 17.0934 4.95451 16.9571 5.04347 16.8392L5.61409 16.0838L18.8581 25.56C19.9368 26.3323 21.2086 26.7452 22.5101 26.7456Z" fill="currentColor"/>
</svg>
