<svg width="25" height="27" viewBox="0 0 25 27" fill="none" xmlns="http://www.w3.org/2000/svg">
<path d="M9.79313 0.101253C9.9172 0.162756 10.0261 0.250981 10.112 0.359587C10.1979 0.468192 10.2587 0.594482 10.29 0.729378C10.3237 0.877503 11.25 4.84125 11.25 7.5C11.25 9.28125 10.4212 10.8694 9.13125 11.8988C8.6625 12.2738 8.4375 12.6825 8.4375 13.0238V13.935C8.4375 13.9788 8.44 14.02 8.445 14.0588C8.50875 14.5238 8.73938 16.2506 8.955 18.0413C9.16687 19.7981 9.375 21.7144 9.375 22.5C9.375 23.4946 8.97991 24.4484 8.27665 25.1517C7.57339 25.8549 6.61956 26.25 5.625 26.25C4.63044 26.25 3.67661 25.8549 2.97335 25.1517C2.27009 24.4484 1.875 23.4946 1.875 22.5C1.875 21.7125 2.08312 19.8 2.295 18.0413C2.51062 16.2506 2.74125 14.5238 2.805 14.0588L2.8125 13.935V13.0238C2.8125 12.6825 2.5875 12.2738 2.11875 11.8988C1.45778 11.3719 0.924053 10.7028 0.557241 9.94124C0.190429 9.1797 -3.69865e-05 8.34528 5.38732e-09 7.5C5.38732e-09 4.85063 0.91875 0.907503 0.96 0.731253C1.00874 0.522828 1.12667 0.337068 1.29454 0.204268C1.46241 0.0714683 1.67033 -0.000534463 1.88438 2.98707e-06C2.40938 2.98707e-06 2.835 0.425628 2.835 0.950628V6.57188C2.82761 6.6985 2.84625 6.82529 2.88977 6.94442C2.93328 7.06356 3.00076 7.17251 3.08802 7.26455C3.17529 7.35659 3.28049 7.42977 3.39714 7.47956C3.51379 7.52936 3.63941 7.55472 3.76624 7.55408C3.89308 7.55344 4.01843 7.52681 4.13457 7.47583C4.25071 7.42486 4.35517 7.35062 4.4415 7.2577C4.52783 7.16478 4.5942 7.05515 4.63651 6.93558C4.67882 6.81601 4.69617 6.68904 4.6875 6.5625V0.937503C4.6875 0.688863 4.78627 0.450406 4.96209 0.27459C5.1379 0.098775 5.37636 2.98707e-06 5.625 2.98707e-06C5.87364 2.98707e-06 6.1121 0.098775 6.28791 0.27459C6.46373 0.450406 6.5625 0.688863 6.5625 0.937503V6.61125C6.56772 6.85741 6.67051 7.0914 6.84826 7.26177C7.02601 7.43214 7.26416 7.52491 7.51031 7.51969C7.75647 7.51447 7.99046 7.41168 8.16083 7.23393C8.33119 7.05618 8.42397 6.81803 8.41875 6.57188V0.946878C8.41875 0.423753 8.8425 2.98707e-06 9.3675 2.98707e-06C9.40875 2.98707e-06 9.5925 3.02447e-06 9.79313 0.101253ZM14.0625 8.4375C14.0625 6.19974 14.9514 4.05363 16.5338 2.47129C18.1161 0.888951 20.2622 2.98707e-06 22.5 2.98707e-06C22.7486 2.98707e-06 22.9871 0.098775 23.1629 0.27459C23.3387 0.450406 23.4375 0.688863 23.4375 0.937503V12.1369L23.4731 12.4688C23.6223 13.8681 23.7654 15.2681 23.9025 16.6688C24.1331 19.0238 24.375 21.6638 24.375 22.5C24.375 23.4946 23.9799 24.4484 23.2766 25.1517C22.5734 25.8549 21.6196 26.25 20.625 26.25C19.6304 26.25 18.6766 25.8549 17.9734 25.1517C17.2701 24.4484 16.875 23.4946 16.875 22.5C16.875 21.6638 17.1169 19.0238 17.3475 16.6688C17.4656 15.4744 17.5837 14.3306 17.6719 13.4831L17.7094 13.125H15.9375C15.4402 13.125 14.9633 12.9275 14.6117 12.5758C14.26 12.2242 14.0625 11.7473 14.0625 11.25V8.4375Z" fill="currentColor"/>
</svg>
