<svg width="22" height="26" viewBox="0 0 22 26" fill="none" xmlns="http://www.w3.org/2000/svg">
<path fill-rule="evenodd" clip-rule="evenodd" d="M21.875 18.8925C21.8735 18.9524 21.8676 19.0122 21.8575 19.0713C21.8839 19.207 21.8799 19.3468 21.8458 19.4808C21.8118 19.6148 21.7486 19.7396 21.6607 19.8463C21.5727 19.9529 21.4623 20.0389 21.3373 20.0978C21.2123 20.1568 21.0757 20.1875 20.9375 20.1875H3.4375C3.23231 20.1875 3.02913 20.2279 2.83956 20.3064C2.64999 20.385 2.47774 20.5001 2.33265 20.6451C2.18755 20.7902 2.07246 20.9625 1.99394 21.1521C1.91542 21.3416 1.875 21.5448 1.875 21.75C1.875 21.9552 1.91542 22.1584 1.99394 22.3479C2.07246 22.5375 2.18755 22.7098 2.33265 22.8549C2.47774 22.9999 2.64999 23.115 2.83956 23.1936C3.02913 23.2721 3.23231 23.3125 3.4375 23.3125H20.9375C21.1861 23.3125 21.4246 23.4113 21.6004 23.5871C21.7762 23.7629 21.875 24.0014 21.875 24.25C21.875 24.4986 21.7762 24.7371 21.6004 24.9129C21.4246 25.0887 21.1861 25.1875 20.9375 25.1875H3.4375C2.52582 25.1875 1.65148 24.8253 1.00682 24.1807C0.362164 23.536 0 22.6617 0 21.75V4.25C0 3.33832 0.362164 2.46398 1.00682 1.81932C1.65148 1.17466 2.52582 0.8125 3.4375 0.8125H20.1875C21.12 0.8125 21.875 1.5675 21.875 2.5V18.8925ZM7.1875 5.8125C6.93886 5.8125 6.7004 5.91127 6.52459 6.08709C6.34877 6.2629 6.25 6.50136 6.25 6.75C6.25 6.99864 6.34877 7.2371 6.52459 7.41291C6.7004 7.58873 6.93886 7.6875 7.1875 7.6875H14.6875C14.9361 7.6875 15.1746 7.58873 15.3504 7.41291C15.5262 7.2371 15.625 6.99864 15.625 6.75C15.625 6.50136 15.5262 6.2629 15.3504 6.08709C15.1746 5.91127 14.9361 5.8125 14.6875 5.8125H7.1875Z" fill="currentColor"/>
</svg>
