<svg width="30" height="30" viewBox="0 0 30 30" fill="none" xmlns="http://www.w3.org/2000/svg">
<path d="M29.0014 7.30066C28.5575 6.32725 27.9747 5.41874 27.27 4.60161L23.535 8.21208C24.4094 8.71229 25.4394 8.89528 26.4406 8.72828C27.4419 8.56128 28.3489 8.0552 28.9993 7.30066M22.0179 6.74759L25.7529 3.13712C24.9082 2.45611 23.9691 1.89274 22.9629 1.46342C22.1818 2.09224 21.6579 2.96941 21.4851 3.93772C21.3123 4.90603 21.502 5.90217 22.02 6.74759M19.2857 4.64304C19.2857 5.98531 19.7271 7.22816 20.475 8.24315L18.75 9.91064L11.2757 2.68348C12.6188 1.74027 14.1523 1.08091 15.7764 0.748297C17.4004 0.415682 19.0787 0.417259 20.7021 0.752923C19.7857 1.85596 19.286 3.22828 19.2857 4.64304ZM20.265 11.3751L21.99 9.70764C23.04 10.4326 24.3257 10.8573 25.7143 10.8573C27.1776 10.8576 28.5972 10.3753 29.7386 9.49015C29.9114 10.2662 29.9986 11.0672 30 11.893C30 14.3994 29.1621 16.7194 27.7414 18.6023L20.265 11.3751ZM26.3229 20.16L18.75 12.8396L17.4536 14.0928C19.6821 16.5484 21.0495 19.6228 21.36 22.8756C23.2457 22.3723 24.9429 21.4236 26.3229 20.16ZM6.85071 8.85215C7.37143 7.02931 8.35071 5.38875 9.65786 4.05476L17.235 11.3751L15.9386 12.6283C13.3983 10.4741 10.2157 9.15225 6.85071 8.85215ZM3.21429 10.8573C2.3618 10.8573 1.54424 11.1846 0.941443 11.7673C0.338647 12.35 0 13.1403 0 13.9644V16.0358C0 19.6067 1.46747 23.0314 4.07958 25.5564C6.6917 28.0815 10.2345 29.5 13.9286 29.5H16.0714C16.9239 29.5 17.7415 29.1726 18.3443 28.5899C18.9471 28.0072 19.2857 27.2169 19.2857 26.3929V24.3215C19.2857 20.7505 17.8182 17.3259 15.2061 14.8008C12.594 12.2758 9.05123 10.8573 5.35714 10.8573H3.21429ZM7.27714 17.8918C7.37667 17.7953 7.4949 17.7188 7.62507 17.6666C7.75524 17.6144 7.89478 17.5875 8.03571 17.5875C8.17664 17.5875 8.31619 17.6144 8.44636 17.6666C8.57653 17.7188 8.69476 17.7953 8.79429 17.8918L12.0086 20.9989C12.1082 21.0952 12.1872 21.2095 12.2411 21.3354C12.295 21.4612 12.3228 21.596 12.3228 21.7322C12.3228 21.8684 12.295 22.0032 12.2411 22.129C12.1872 22.2549 12.1082 22.3692 12.0086 22.4655C11.909 22.5618 11.7907 22.6382 11.6605 22.6903C11.5304 22.7424 11.3909 22.7692 11.25 22.7692C11.1091 22.7692 10.9696 22.7424 10.8395 22.6903C10.7093 22.6382 10.591 22.5618 10.4914 22.4655L7.27714 19.3584C7.17736 19.2622 7.0982 19.1479 7.04419 19.022C6.99017 18.8962 6.96237 18.7613 6.96237 18.6251C6.96237 18.4888 6.99017 18.354 7.04419 18.2281C7.0982 18.1023 7.17736 17.988 7.27714 17.8918Z" fill="currentColor"/>
</svg>
